%FSLAX24Y24*%
%MOIN*%
%LNTopCopper*%
%ADD10C,.01*%
%ADD11C,.015*%
%ADD12C,.02*%
%ADD13C,.03*%
%ADD14C,.037*%
%ADD15C,.05*%
%ADD16C,.056*%
%ADD17C,.065*%
%ADD18C,.075*%
%ADD19C,.084*%
%ADD20C,.1*%
%ADD21C,.16*%
%ADD22R,.006X.006*%
%ADD23R,.056X.056*%
%ADD24R,.026X.08*%
D10*
G01X98500Y42750D02*
X100500D01*
X16500Y25000D02*
Y24250D01*
X23000Y25000D02*
Y24250D01*
X42750Y25000D02*
Y24250D01*
X49250Y25000D02*
Y24250D01*
X68000Y25000D02*
Y24250D01*
X74500Y25000D02*
Y24250D01*
X74000Y22000D02*
Y22500D01*
X16000Y22000D02*
Y22500D01*
X23000Y23000D02*
X22500Y22500D01*
Y22000D01*
X16000Y22500D02*
X16500Y23000D01*
X41750D02*
X42250Y22500D01*
X48250Y23000D02*
X48750Y22500D01*
X67000Y23000D02*
X67500Y22500D01*
X73500Y23000D02*
X74000Y22500D01*
X93000Y23000D02*
X93500Y22500D01*
X99500Y23000D02*
X100000Y22500D01*
X93500Y22000D02*
Y22500D01*
X100000D02*
Y22000D01*
X67500D02*
Y22500D01*
X48750Y22000D02*
Y22500D01*
X42250Y22000D02*
Y22500D01*
X9000Y42750D02*
X9750Y43500D01*
X23500Y22500D02*
X23000Y22000D01*
X42750D02*
X43250Y22500D01*
X16500Y22000D02*
X17000Y22500D01*
X49250Y22000D02*
X49750Y22500D01*
X68000Y22000D02*
X68500Y22500D01*
X74500Y22000D02*
X75000Y22500D01*
X94000Y22000D02*
X94500Y22500D01*
X100500Y22000D02*
X101000Y22500D01*
X22500Y24250D02*
Y23750D01*
X21250Y32000D02*
X22500Y30750D01*
Y23750D02*
X22250Y23500D01*
X16250D02*
X16000Y23750D01*
X42000Y23500D02*
X42250Y23750D01*
X16000D02*
Y24250D01*
X42250Y23750D02*
Y24250D01*
X48500Y23500D02*
X48750Y23750D01*
Y24250D01*
X67250Y23500D02*
X67500Y23750D01*
Y24250D01*
X73750Y23500D02*
X74000Y23750D01*
Y24250D01*
X93250Y23500D02*
X93500Y23750D01*
Y24250D01*
X99750Y23500D02*
X100000Y23750D01*
Y24250D01*
X28000Y27250D02*
X30000Y29250D01*
X94000Y25000D02*
Y24250D01*
X100500Y25000D02*
Y24250D01*
X34000Y32250D02*
X32500Y30750D01*
X28500Y44000D02*
X29500Y43000D01*
Y36250D01*
X30000Y29250D02*
Y42500D01*
X28000Y26250D02*
X30500Y28750D01*
X30000Y42500D02*
X31000Y43500D01*
X48250Y38250D02*
X46250Y36250D01*
X31000Y43500D02*
X35500D01*
X30500Y28750D02*
Y42250D01*
X35500Y43500D02*
X36500Y42500D01*
Y40250D01*
X34000Y37250D02*
X35000Y36250D01*
X46250D02*
X35000D01*
X48250Y38250D02*
X49250D01*
X30500Y42250D02*
X31250Y43000D01*
X69250Y16250D02*
X68500Y15500D01*
X64500D01*
X63750Y16250D01*
Y17750D01*
X43750Y16250D02*
X43000Y15500D01*
X63750Y17750D02*
X63000Y18500D01*
X43000Y15500D02*
X38750D01*
X29750Y15750D02*
X29250Y16250D01*
X43500Y33250D02*
X42500Y32250D01*
X29250Y18000D02*
X35750Y24500D01*
Y28750D01*
X36250Y29250D01*
X43500Y33250D02*
X45500Y35250D01*
X41500Y33250D02*
X44000Y35750D01*
X48750D02*
X49250Y36250D01*
X42500Y32250D02*
Y29750D01*
X63000Y18500D02*
Y26000D01*
X49250Y35250D02*
X45500D01*
Y33250D02*
X46500Y34250D01*
X47500Y33250D02*
X47750D01*
X49250Y34250D02*
X46500D01*
X49250Y33250D02*
X47750D01*
X48750Y35750D02*
X44000D01*
X41500Y33250D02*
X37750D01*
X35250Y24750D02*
X28750Y18250D01*
X37750Y33250D02*
X35250Y30750D01*
X45500Y33250D02*
X44500Y32250D01*
Y29250D01*
X56500Y34750D02*
X52750D01*
X54000Y33250D02*
X52250D01*
X44500Y29250D02*
X46000Y27750D01*
X52250Y34250D02*
X55000D01*
X46000Y27750D02*
X49500D01*
X52250Y35250D02*
X52750Y34750D01*
X62000Y27000D02*
X63000Y26000D01*
X55000Y34250D02*
X56000Y33250D01*
X52250Y36250D02*
X53250Y35250D01*
X56500Y34750D02*
X58000Y33250D01*
X53250Y35250D02*
X58000D01*
X60000Y33250D01*
X51250Y17750D02*
Y27000D01*
X34000Y33250D02*
X32000Y31250D01*
X31250Y43000D02*
X35250D01*
X51250Y27000D02*
X50000Y28250D01*
X47500D02*
X46500Y29250D01*
X35250Y43000D02*
X36000Y42250D01*
X46500Y29250D02*
Y32250D01*
X47500Y33250D01*
X36000Y42250D02*
Y40750D01*
X32500Y30750D02*
Y25250D01*
X25500Y31250D02*
X24750Y32000D01*
X27000Y32750D02*
X24750Y35000D01*
X29000Y29750D02*
Y42500D01*
X28000Y43500D01*
X32500Y25250D02*
X29000Y21750D01*
X28000Y43500D02*
X9750D01*
X34000Y34250D02*
X31500Y31750D01*
X29000Y21750D02*
X25750D01*
X32000Y31250D02*
Y25500D01*
X49500Y27750D02*
X50250Y27000D01*
X25750Y21750D02*
X25500Y22000D01*
X21250Y34000D02*
X23500Y31750D01*
X25500Y22000D02*
Y31250D01*
X32000Y25500D02*
X28750Y22250D01*
X34000Y35250D02*
X31000Y32250D01*
X28750Y22250D02*
X26250D01*
X31500Y31750D02*
Y25750D01*
X26250Y22250D02*
X26000Y22500D01*
Y31750D01*
X31500Y25750D02*
X28500Y22750D01*
X42500Y29750D02*
X42000Y29250D01*
X36250D02*
X42000D01*
X24750Y34000D02*
X26500Y32250D01*
X28500Y22750D02*
X26750D01*
X47500Y28250D02*
X50000D01*
X31000Y32250D02*
Y26000D01*
X28750Y16250D02*
Y18250D01*
X35250Y30750D02*
Y24750D01*
X29250Y18000D02*
Y16250D01*
X26750Y22750D02*
X26500Y23000D01*
Y32250D01*
X23000Y25000D02*
Y31250D01*
X22500Y24250D02*
Y30750D01*
X24750Y33000D02*
X26000Y31750D01*
X31000Y26000D02*
X28250Y23250D01*
X29750Y15750D02*
X38500D01*
X38750Y15500D02*
X38500Y15750D01*
X23000Y31250D02*
X21250Y33000D01*
X28250Y23250D02*
X27250D01*
X27000Y23500D01*
Y32750D01*
X11250Y41750D02*
X9000D01*
X21250Y35000D02*
X24000Y32250D01*
X23500Y31750D02*
Y22500D01*
X62230Y41080D02*
X62260Y40600D01*
X62250Y39750D02*
X62260Y40600D01*
X58250Y41000D02*
Y43500D01*
X24000Y32250D02*
Y23000D01*
D11*
X91750Y16250D02*
Y18750D01*
X39250Y21250D02*
Y22000D01*
X39750Y20750D02*
Y22000D01*
X64000Y20750D02*
Y19500D01*
X65750Y17750D01*
X40750Y20250D02*
Y22000D01*
X65750Y17750D02*
Y16250D01*
X40250Y22000D02*
Y16250D01*
X14250D02*
Y17000D01*
X90500Y22000D02*
Y20750D01*
X91000Y22000D02*
Y20250D01*
X91500Y22000D02*
Y20000D01*
X91000Y20250D02*
X90250Y19500D01*
X67750Y18250D02*
Y16250D01*
X91500Y20000D02*
X90500Y19000D01*
X67750Y18250D02*
X69000Y19500D01*
X90500Y19000D02*
X69250D01*
X90250Y19500D02*
X69000D01*
X66750Y7000D02*
X68500Y8750D01*
X71000D02*
X68500D01*
X67750Y1250D02*
Y7000D01*
X68500Y7750D02*
X67750Y7000D01*
X71000Y22000D02*
Y20250D01*
X71500Y9250D02*
Y18500D01*
X72000Y9000D02*
Y18500D01*
X72500Y8500D02*
Y18500D01*
X90250Y9000D02*
X97000Y15750D01*
X15250Y16250D02*
Y17250D01*
X65000Y22000D02*
Y19500D01*
X37000Y21250D02*
Y19500D01*
X36500Y21500D02*
Y20000D01*
X42250Y19250D02*
Y16250D01*
X65000Y19500D02*
X66750Y17750D01*
X40750Y24250D02*
Y25000D01*
X16250Y16250D02*
Y17250D01*
X66750Y17750D02*
Y16250D01*
X64500Y20750D02*
Y22000D01*
X65500D02*
Y20250D01*
X66000Y22000D02*
Y19750D01*
X89750Y17500D02*
X92000Y19750D01*
Y22000D01*
X41250Y20250D02*
Y16250D01*
X97000Y22000D02*
Y15750D01*
X97500Y22000D02*
Y15500D01*
X98000Y22000D02*
Y15250D01*
X97500Y15500D02*
X90250Y8250D01*
X72500Y7750D02*
X68500D01*
X98000Y15250D02*
X90500Y7750D01*
X72500D02*
X73000Y8250D01*
X90500Y7750D02*
X73500D01*
X90250Y8250D02*
X73000D01*
X71500Y22000D02*
Y20250D01*
X42250Y8000D02*
Y1250D01*
X71500Y9250D02*
X71000Y8750D01*
X66750Y7000D02*
Y1250D01*
X89500Y6750D02*
X90250D01*
X71000Y9500D02*
Y18500D01*
X72000Y22000D02*
Y20250D01*
X72500Y22000D02*
Y20250D01*
X90250Y6750D02*
X98500Y15000D01*
Y22000D01*
X41250Y9000D02*
Y1250D01*
X99000Y24250D02*
Y27000D01*
X98500Y24250D02*
Y27250D01*
X98000Y27500D02*
Y24250D01*
X97500D02*
Y27750D01*
X101500Y32750D02*
X102000D01*
X92500Y27000D02*
Y24250D01*
X92000Y27250D02*
Y24250D01*
X102500Y32250D02*
Y31250D01*
X102250Y31000D01*
X95000D01*
X73000Y24250D02*
Y27000D01*
X95000Y31000D02*
X94500Y30500D01*
X91500Y27500D02*
Y24250D01*
X72500D02*
Y27250D01*
X72000Y24250D02*
Y27500D01*
X71500Y24250D02*
Y27750D01*
X66500Y24250D02*
Y27000D01*
X66000Y24250D02*
Y27250D01*
X65500Y24250D02*
Y27500D01*
X65000Y24250D02*
Y27750D01*
X102500Y32250D02*
X102000Y32750D01*
X39750Y24250D02*
Y23750D01*
X40250Y24250D02*
Y23500D01*
X39750Y23750D02*
X39500Y23500D01*
X38500D01*
X36500Y21500D01*
X40250Y23500D02*
X39750Y23000D01*
X38750D01*
X37000Y21250D01*
X40750Y25000D02*
X40000Y25750D01*
X36000Y21750D02*
X38500Y24250D01*
X40000Y25750D02*
X39000D01*
X39250Y24250D02*
Y25250D01*
X39000Y25750D02*
X38500Y25250D01*
X36000Y21750D02*
Y20500D01*
X38500Y24250D02*
Y25250D01*
X41250Y24250D02*
Y25250D01*
X40250Y26250D01*
X38750D01*
X38000Y25500D01*
Y24500D01*
X35500Y22000D01*
Y21000D01*
X64990Y43200D02*
X65500Y43250D01*
X91000Y27750D02*
Y24250D01*
X71000D02*
Y27500D01*
X64500Y24250D02*
Y42000D01*
X91000Y37250D02*
X85000Y43250D01*
X16250Y18250D02*
X15250Y17250D01*
X15500Y18250D02*
X14250Y17000D01*
X10500Y19250D02*
X11500Y18750D01*
X97000Y27000D02*
X93000Y31000D01*
X90500Y24250D02*
Y37000D01*
X93000Y31000D02*
X91500D01*
X90500Y37000D02*
X84750Y42750D01*
X91500Y31000D02*
X91000Y31500D01*
Y37250D01*
X97000Y27000D02*
Y24250D01*
X84750Y42750D02*
X67000D01*
X85000Y43250D02*
X67250D01*
X71000Y27500D02*
X65000Y33500D01*
X67250Y43250D02*
X66750Y43750D01*
X64500Y42000D02*
X64590Y42500D01*
X66750Y43750D02*
X64750D01*
X65000Y33500D02*
Y42000D01*
X64750Y43750D02*
X64190Y43200D01*
X65000Y42000D02*
X65390Y42500D01*
X40000Y27750D02*
X41000Y28750D01*
X63500Y31000D02*
Y37750D01*
X41000Y28750D02*
X42000D01*
X65500Y43250D02*
X66500D01*
X63500Y37750D02*
X60500Y40750D01*
Y42750D01*
X66500Y43250D02*
X67000Y42750D01*
X60500D02*
X61500Y43750D01*
X63000D01*
X63390Y43200D01*
D12*
X47250Y22000D02*
Y11500D01*
X40500Y9000D02*
X42500Y11000D01*
X12500Y17750D02*
Y19000D01*
X14500Y22000D02*
Y20000D01*
X13500Y20750D02*
Y22000D01*
X14000Y21250D02*
Y22000D01*
X14500Y20000D02*
X13250Y18750D01*
Y16250D01*
X63500Y21750D02*
Y19000D01*
X38500Y22000D02*
Y21250D01*
X63500Y19000D02*
X64750Y17750D01*
Y16250D01*
X39250Y20500D02*
Y16250D01*
X91750Y1250D02*
Y6750D01*
X45000Y10000D02*
X45750Y10750D01*
Y9500D02*
X46250Y10000D01*
X63250Y9500D02*
X65750Y7000D01*
Y1250D01*
X46750Y22000D02*
Y6500D01*
X19500Y8000D02*
Y22000D01*
X21000D02*
Y11750D01*
X20000Y9500D02*
Y22000D01*
X20750Y10250D02*
X20500Y10500D01*
X62500D02*
Y9250D01*
X37750Y10000D02*
X39250Y8500D01*
X62500Y9250D02*
X64750Y7000D01*
Y1250D01*
X39250Y8500D02*
Y1250D01*
X15000Y22000D02*
Y21250D01*
X15500Y21500D02*
Y22000D01*
X15000Y21250D02*
X15500Y20750D01*
X20500Y22000D02*
Y10500D01*
X15500Y20750D02*
X17000D01*
X24500Y26000D02*
Y22500D01*
X17000Y20750D02*
X18000Y21750D01*
X15500Y21500D02*
X15750Y21250D01*
X18000Y21750D02*
Y25500D01*
X16500Y27000D01*
X15750Y21250D02*
X16750D01*
X24500Y27000D02*
X25000Y26500D01*
X16750Y21250D02*
X17500Y22000D01*
X24500Y22500D02*
X23250Y21250D01*
X22000Y24250D02*
Y25500D01*
X17500Y22000D02*
Y25000D01*
X16500Y26000D02*
X15500Y25000D01*
Y24250D01*
X17500Y25000D02*
X16500Y26000D01*
X23250Y21250D02*
X22250D01*
X22000Y21500D01*
X25000Y26500D02*
Y22250D01*
X22000Y21500D02*
Y22000D01*
X25000Y22250D02*
X23500Y20750D01*
X22000D01*
X21500Y21250D01*
Y22000D01*
X44250Y25500D02*
X42750Y27000D01*
X43750Y25000D02*
X42750Y26000D01*
X43750Y22000D02*
Y25000D01*
X44250Y21750D02*
Y25500D01*
X43250Y20750D02*
X44250Y21750D01*
X43000Y21250D02*
X43750Y22000D01*
X42000Y21250D02*
X43000D01*
X41750Y20750D02*
X43250D01*
X41750Y21500D02*
X42000Y21250D01*
X41250D02*
X41750Y20750D01*
X41250Y22000D02*
Y21250D01*
X41750Y21500D02*
Y22000D01*
X50750Y25500D02*
X49250Y27000D01*
X50250Y25000D02*
X49250Y26000D01*
X50250Y22000D02*
Y25000D01*
X50750Y21750D02*
Y25500D01*
X49750Y20750D02*
X50750Y21750D01*
X49500Y21250D02*
X50250Y22000D01*
X48500Y21250D02*
X49500D01*
X48250Y20750D02*
X49750D01*
X48250Y21500D02*
X48500Y21250D01*
X47750D02*
X48250Y20750D01*
X47750Y22000D02*
Y21250D01*
X48250Y21500D02*
Y22000D01*
X69500Y25500D02*
X68000Y27000D01*
X69000Y25000D02*
X68000Y26000D01*
X69000Y22000D02*
Y25000D01*
X69500Y21750D02*
Y25500D01*
X68500Y20750D02*
X69500Y21750D01*
X68250Y21250D02*
X69000Y22000D01*
X67250Y21250D02*
X68250D01*
X67000Y20750D02*
X68500D01*
X67000Y21500D02*
X67250Y21250D01*
X66500D02*
X67000Y20750D01*
X66500Y22000D02*
Y21250D01*
X67000Y21500D02*
Y22000D01*
X41750Y25000D02*
Y24250D01*
X42750Y26000D02*
X41750Y25000D01*
X48250D02*
Y24250D01*
X49250Y26000D02*
X48250Y25000D01*
X67000D02*
Y24250D01*
X68000Y26000D02*
X67000Y25000D01*
X76000Y25500D02*
X74500Y27000D01*
X75500Y25000D02*
X74500Y26000D01*
X75500Y22000D02*
Y25000D01*
X76000Y21750D02*
Y25500D01*
X75000Y20750D02*
X76000Y21750D01*
X74750Y21250D02*
X75500Y22000D01*
X73750Y21250D02*
X74750D01*
X73500Y20750D02*
X75000D01*
X73500Y21500D02*
X73750Y21250D01*
X73000D02*
X73500Y20750D01*
X73000Y22000D02*
Y21250D01*
X73500Y21500D02*
Y22000D01*
Y25000D02*
Y24250D01*
X74500Y26000D02*
X73500Y25000D01*
X95500Y25500D02*
X94000Y27000D01*
X95000Y25000D02*
X94000Y26000D01*
X95000Y22000D02*
Y25000D01*
X95500Y21750D02*
Y25500D01*
X94500Y20750D02*
X95500Y21750D01*
X94250Y21250D02*
X95000Y22000D01*
X93250Y21250D02*
X94250D01*
X93000Y20750D02*
X94500D01*
X93000Y21500D02*
X93250Y21250D01*
X92500D02*
X93000Y20750D01*
X92500Y22000D02*
Y21250D01*
X93000Y21500D02*
Y22000D01*
Y25000D02*
Y24250D01*
X94000Y26000D02*
X93000Y25000D01*
X102000Y25500D02*
X100500Y27000D01*
X101500Y25000D02*
X100500Y26000D01*
X101500Y22000D02*
Y25000D01*
X102000Y21750D02*
Y25500D01*
X101000Y20750D02*
X102000Y21750D01*
X100750Y21250D02*
X101500Y22000D01*
X99750Y21250D02*
X100750D01*
X99500Y20750D02*
X101000D01*
X99500Y21500D02*
X99750Y21250D01*
X99000D02*
X99500Y20750D01*
X99000Y22000D02*
Y21250D01*
X99500Y21500D02*
Y22000D01*
Y25000D02*
Y24250D01*
X100500Y26000D02*
X99500Y25000D01*
X18250Y28000D02*
X19500Y26750D01*
X51250Y40250D02*
X52250Y39250D01*
Y38250D02*
Y39250D01*
X9000Y31750D02*
X12000D01*
X13500Y24250D02*
Y30250D01*
X14000Y24250D02*
Y30500D01*
X13500Y30250D02*
X12000Y31750D01*
X14500Y24250D02*
Y30750D01*
X14000Y30500D02*
X11750Y32750D01*
X9000D01*
X15000Y24250D02*
Y31000D01*
X14500Y30750D02*
X11500Y33750D01*
X9000D01*
X15000Y31000D02*
X11250Y34750D01*
X13000Y22000D02*
Y19500D01*
X12500Y19000D02*
X13000Y19500D01*
X30500Y17750D02*
X37500Y24750D01*
X47750Y25000D02*
Y24250D01*
X37500Y24750D02*
Y25750D01*
X38500Y26750D01*
X46250Y24250D02*
Y23750D01*
X38500Y26750D02*
X40500D01*
X47750Y25000D02*
X44500Y28250D01*
X40500Y26750D02*
X41500Y27750D01*
X44250D01*
X47250Y24750D01*
X44500Y28250D02*
X41250D01*
X47250Y24750D02*
Y24250D01*
X46750D02*
Y23500D01*
X41250Y28250D02*
X40250Y27250D01*
X46250Y23750D02*
X46000Y23500D01*
X40250Y27250D02*
X38250D01*
X37000Y26000D01*
Y25000D01*
X46000Y23500D02*
X45000D01*
X37000Y25000D02*
X29750Y17750D01*
X45750Y24250D02*
Y25500D01*
X45000Y23500D02*
X44750Y23250D01*
X46750Y23500D02*
X46250Y23000D01*
X44750Y23250D02*
Y15000D01*
X42000Y12250D01*
X46250Y23000D02*
X45750D01*
X45250Y22500D01*
X45750Y25500D02*
X44250Y27000D01*
X45250Y22500D02*
Y14750D01*
X42000Y11500D01*
X40250D01*
X39250Y20500D02*
X38500Y21250D01*
X11250Y34750D02*
X9000D01*
Y35750D02*
X11250D01*
X20500Y24250D02*
Y27250D01*
X11250Y35750D02*
X20000Y27000D01*
Y24250D01*
X21000D02*
Y27500D01*
X20500Y27250D02*
X11000Y36750D01*
X9000D01*
X21000Y27500D02*
X10750Y37750D01*
X9000D01*
X21500Y24250D02*
Y27750D01*
X10500Y38750D01*
X9000D01*
X13000Y24250D02*
Y30000D01*
X19500Y24250D02*
Y26750D01*
X29750Y17750D02*
Y16750D01*
X30500Y17750D02*
Y16750D01*
X29750Y15250D02*
X29000Y14500D01*
X22250D01*
X30500Y15250D02*
Y14750D01*
X21750Y14000D02*
X22250Y14500D01*
X29750Y14000D02*
X23000D01*
X22500Y13500D01*
X21500Y11250D02*
X21000Y11750D01*
X64000Y30750D02*
Y42000D01*
X63790Y42500D01*
X45750Y22000D02*
Y10750D01*
X46250Y22000D02*
Y10000D01*
X47750Y11000D02*
X47250Y11500D01*
X29750Y14000D02*
X30500Y14750D01*
D13*
X100500Y41750D02*
X101500D01*
D14*
X39250Y21250D03*
X91750Y18750D03*
X39750Y20750D03*
X64000D03*
X40750Y20250D03*
X15500Y18250D03*
X90500Y20750D03*
X69250Y19000D03*
X42250Y19250D03*
X71000Y20250D03*
X71500D03*
X72000D03*
X72500D03*
X71000Y18500D03*
X71500D03*
X72000D03*
X72500D03*
X41750Y23000D03*
X16500D03*
X29000Y29750D03*
X28500Y44000D03*
X36500Y40250D03*
X36000Y40750D03*
X16250Y17250D03*
X89750Y17500D03*
X65500Y20250D03*
X66000Y19750D03*
X64500Y20750D03*
X37000Y19500D03*
X39250Y25250D03*
X41250Y20250D03*
X16250Y18250D03*
X90250Y9000D03*
X73500Y7750D03*
X42250Y8000D03*
X89500Y6750D03*
X72000Y9000D03*
X72500Y8500D03*
X71000Y9500D03*
X41250Y9000D03*
X23000Y25000D03*
X42750D03*
X16500D03*
X49250D03*
X68000D03*
X74500D03*
X94000D03*
X100500D03*
X48500Y23500D03*
X48250Y23000D03*
X24000D03*
X23000D03*
X67250Y23500D03*
X67000Y23000D03*
X73750Y23500D03*
X93250D03*
X99750D03*
X73500Y23000D03*
X93000D03*
X23500Y22500D03*
X43250D03*
X17000D03*
X99500Y23000D03*
X49750Y22500D03*
X68500D03*
X75000D03*
X94500D03*
X101000D03*
X42000Y23500D03*
X16250D03*
X22250D03*
X29500Y36250D03*
X28750Y16250D03*
X62000Y27000D03*
X51250Y17750D03*
X50250Y27000D03*
X40000Y27750D03*
X98000Y27500D03*
X98500Y27250D03*
X99000Y27000D03*
X97500Y27750D03*
X71500D03*
X94500Y30500D03*
X92500Y27000D03*
X91500Y27500D03*
X92000Y27250D03*
X65000Y27750D03*
X72500Y27250D03*
X72000Y27500D03*
X73000Y27000D03*
X66500D03*
X66000Y27250D03*
X65500Y27500D03*
X91000Y27750D03*
X98500Y42750D03*
X36500Y20000D03*
X36000Y20500D03*
X35500Y21000D03*
X10500Y19250D03*
X11250Y41750D03*
X11500Y18750D03*
X42000Y28750D03*
X63500Y31000D03*
X62250Y39750D03*
D15*
X50250Y40250D02*
Y41750D01*
X42750Y26000D02*
X41750Y27000D01*
X51250Y40250D02*
X50500Y39500D01*
X48750D01*
X46000Y36750D01*
X51250Y40250D02*
X53500D01*
X97250Y41750D02*
X100500D01*
D16*
X12500Y17750D03*
X21500Y11250D03*
X47750Y11000D03*
X46750Y6500D03*
X42500Y11000D03*
X16500Y27000D03*
Y26000D03*
X24750Y32000D03*
X21250D03*
X24750Y33000D03*
X21250D03*
X24750Y34000D03*
X21250D03*
X24750Y35000D03*
X21250D03*
X38500Y22000D03*
X63500Y21750D03*
X14000Y21250D03*
X13500Y20750D03*
X45000Y10000D03*
X91750Y6750D03*
X45750Y9500D03*
X63250D03*
X40500Y9000D03*
X19500Y8000D03*
X37750Y10000D03*
X62500Y10500D03*
X20750Y10250D03*
X20000Y9500D03*
X24500Y27000D03*
Y26000D03*
X42750Y27000D03*
Y26000D03*
X49250Y27000D03*
Y26000D03*
X68000Y27000D03*
Y26000D03*
X74500Y27000D03*
Y26000D03*
X94000Y27000D03*
Y26000D03*
X100500Y27000D03*
Y26000D03*
X22000Y25500D03*
X50250Y41750D03*
X41750Y27000D03*
X51250Y40250D03*
X50250D03*
X49250Y37250D03*
Y36250D03*
Y35250D03*
Y34250D03*
Y33250D03*
Y32250D03*
Y31250D03*
X52250D03*
Y32250D03*
Y33250D03*
Y34250D03*
Y35250D03*
Y36250D03*
Y37250D03*
Y38250D03*
X46000Y36750D03*
X47500Y33250D03*
Y29750D03*
X45500Y33250D03*
Y29750D03*
X43500Y33250D03*
Y29750D03*
X41500Y33250D03*
Y29750D03*
X60000Y33250D03*
Y29750D03*
X58000Y33250D03*
Y29750D03*
X56000Y33250D03*
Y29750D03*
X54000Y33250D03*
Y29750D03*
X64000Y30750D03*
X53500Y40250D03*
X97250Y41750D03*
X44250Y27000D03*
X40250Y11500D03*
X42000Y12250D03*
X18250Y28000D03*
X29750Y16750D03*
X30500D03*
X29750Y15250D03*
X30500D03*
X21750Y14000D03*
X22500Y13500D03*
X56500Y42250D03*
Y38750D03*
X13000Y30000D03*
X58250Y41000D03*
Y37500D03*
Y43500D03*
D17*
X100500Y42750D03*
Y41750D03*
Y40750D03*
Y39750D03*
Y38750D03*
Y37750D03*
Y36750D03*
Y35750D03*
Y34750D03*
Y33750D03*
Y32750D03*
Y31750D03*
X101500Y41750D03*
Y40750D03*
Y39750D03*
Y38750D03*
Y37750D03*
Y36750D03*
Y35750D03*
Y34750D03*
Y33750D03*
Y32750D03*
Y31750D03*
Y42750D03*
X28000Y42250D03*
Y41250D03*
Y40250D03*
Y39250D03*
Y38250D03*
Y37250D03*
Y36250D03*
Y35250D03*
Y34250D03*
Y33250D03*
Y32250D03*
Y31250D03*
Y30250D03*
Y29250D03*
Y28250D03*
Y27250D03*
Y26250D03*
X34000Y42250D03*
Y41250D03*
Y40250D03*
Y39250D03*
Y38250D03*
Y37250D03*
Y36250D03*
Y35250D03*
Y34250D03*
Y33250D03*
Y32250D03*
Y31250D03*
Y30250D03*
Y29250D03*
Y28250D03*
Y27250D03*
Y26250D03*
X28000Y25250D03*
X34000D03*
X8000Y42750D03*
X9000D03*
Y41750D03*
X8000D03*
Y40750D03*
X9000D03*
Y39750D03*
X8000D03*
Y38750D03*
X9000D03*
Y37750D03*
X8000D03*
Y36750D03*
X9000D03*
Y35750D03*
X8000D03*
Y34750D03*
X9000D03*
Y33750D03*
X8000D03*
Y32750D03*
X9000D03*
X8000Y31750D03*
X9000D03*
X62230Y41080D03*
X65750D03*
X66750D03*
X61230D03*
X62590Y43200D03*
X63390D03*
X64190D03*
X64990D03*
X65390Y42500D03*
X64590D03*
X63790D03*
X62990D03*
D18*
X13250Y16250D03*
X14250D03*
X15250D03*
X16250D03*
X17750D03*
Y15250D03*
X13250Y1250D03*
X14250D03*
X15250D03*
X16250D03*
X39250Y16250D03*
X40250D03*
X41250D03*
X42250D03*
X43750D03*
Y15250D03*
X39250Y1250D03*
X40250D03*
X41250D03*
X42250D03*
X64750Y16250D03*
X65750D03*
X66750D03*
X67750D03*
X69250D03*
Y15250D03*
X64750Y1250D03*
X65750D03*
X66750D03*
X67750D03*
X90750Y16250D03*
X91750D03*
X92750D03*
X93750D03*
X95250D03*
Y15250D03*
X90750Y1250D03*
X91750D03*
X92750D03*
X93750D03*
D19*
X66250Y42500D03*
X61730D03*
D20*
X67140Y44340D03*
X60840D03*
D21*
X4560Y12690D03*
Y4820D03*
X27390Y12690D03*
Y4820D03*
X30560Y12690D03*
Y4820D03*
X53390Y12690D03*
Y4820D03*
X56060Y12690D03*
Y4820D03*
X78890Y12690D03*
Y4820D03*
X82060Y12690D03*
Y4820D03*
X104890Y12690D03*
Y4820D03*
X2250Y2250D03*
X107250D03*
Y43000D03*
X2250D03*
D23*
X49250Y38250D03*
D24*
X16500Y24250D03*
X16000D03*
X15500D03*
X15000D03*
X14500D03*
X14000D03*
X13500D03*
X13000D03*
Y22000D03*
X13500D03*
X14000D03*
X14500D03*
X15000D03*
X15500D03*
X16000D03*
X16500D03*
X68000Y24250D03*
X67500D03*
X67000D03*
X66500D03*
X66000D03*
X65500D03*
X65000D03*
X64500D03*
Y22000D03*
X65000D03*
X65500D03*
X66000D03*
X66500D03*
X67000D03*
X67500D03*
X68000D03*
X42750Y24250D03*
X42250D03*
X41750D03*
X41250D03*
X40750D03*
X40250D03*
X39750D03*
X23000D03*
X22500D03*
X39250D03*
Y22000D03*
X39750D03*
X40250D03*
X40750D03*
X22000Y24250D03*
X21500D03*
X21000D03*
X20500D03*
X20000D03*
X19500D03*
Y22000D03*
X20000D03*
X20500D03*
X21000D03*
X21500D03*
X22000D03*
X22500D03*
X23000D03*
X94000Y24250D03*
X74500D03*
X74000D03*
X73500D03*
X73000D03*
X72500D03*
X72000D03*
X71500D03*
X71000D03*
Y22000D03*
X71500D03*
X72000D03*
X72500D03*
X73000D03*
X73500D03*
X74000D03*
X74500D03*
X93500Y24250D03*
X93000D03*
X92500D03*
X92000D03*
X91500D03*
X91000D03*
X90500D03*
Y22000D03*
X91000D03*
X91500D03*
X92000D03*
X92500D03*
X93000D03*
X93500D03*
X94000D03*
X41250D03*
X41750D03*
X42250D03*
X42750D03*
X49250Y24250D03*
X48750D03*
X48250D03*
X47750D03*
X47250D03*
X46750D03*
X46250D03*
X45750D03*
Y22000D03*
X46250D03*
X46750D03*
X47250D03*
X47750D03*
X48250D03*
X48750D03*
X49250D03*
X100500Y24250D03*
X100000D03*
X99500D03*
X99000D03*
X98500D03*
X98000D03*
X97500D03*
X97000D03*
Y22000D03*
X97500D03*
X98000D03*
X98500D03*
X99000D03*
X99500D03*
X100000D03*
X100500D03*
M02*
