%FSLAX24Y24*%
%MOIN*%
%LNBottomCopper*%
%ADD10C,.01*%
%ADD11C,.015*%
%ADD12C,.02*%
%ADD13C,.034*%
%ADD14C,.037*%
%ADD15C,.039*%
%ADD16C,.044*%
%ADD17C,.05*%
%ADD18C,.056*%
%ADD19C,.061*%
%ADD20C,.065*%
%ADD21C,.074*%
%ADD22C,.075*%
%ADD23C,.08*%
%ADD24C,.084*%
%ADD25C,.089*%
%ADD26C,.099*%
%ADD27C,.1*%
%ADD28C,.108*%
%ADD29C,.16*%
%ADD30C,.184*%
%ADD31R,.006X.006*%
%ADD32R,.056X.056*%
%ADD33R,.08X.08*%
G36*
G01X250Y45000D02*
Y250D01*
X109250D01*
Y45000D01*
X250D01*
G37*
%LPC*%
G36*
X62500Y39750D02*
Y40250D01*
X62000D01*
Y39750D01*
X62500D01*
G37*
G36*
X63500Y31000D02*
X64000Y30750D01*
X61500Y28250D01*
X45500D01*
X44500Y27250D01*
Y26250D01*
X43750D01*
X41000Y28750D01*
X61250D01*
X63500Y31000D01*
G37*
G36*
X50000Y27000D02*
X49250D01*
X49750Y26500D01*
X62750D01*
X62250Y27000D01*
X50000D01*
G37*
G36*
X47750Y33000D02*
X48500D01*
X48000Y33500D01*
Y33750D01*
X47500Y33500D01*
X47750Y33000D01*
G37*
G36*
X62250Y45000D02*
Y44000D01*
X65750D01*
Y45000D01*
X62250D01*
G37*
G36*
X34000Y41250D02*
Y42250D01*
X35500Y40750D01*
X45750D01*
X48750Y37750D01*
X48000D01*
X45500Y40250D01*
X35000D01*
X34000Y41250D01*
G37*
G36*
X65250Y42500D02*
X65000Y43250D01*
X60000D01*
Y43500D01*
X26500D01*
X17500Y34500D01*
X18250D01*
X26750Y43000D01*
X59500D01*
X60750Y41750D01*
X61250D01*
Y40750D01*
X62250D01*
Y41750D01*
X63000Y42500D01*
X65250D01*
G37*
G36*
X64750Y26500D02*
Y27750D01*
X73500Y36250D01*
X98000D01*
X98750Y37000D01*
Y38000D01*
X73500D01*
X69000Y33500D01*
X60250D01*
X60000Y33000D01*
X53750D01*
X55750Y35000D01*
X57000D01*
Y35750D01*
X52750Y40000D01*
X53250Y40500D01*
X57500Y36250D01*
X67750D01*
X72250Y40750D01*
X96250D01*
X97500Y42000D01*
X98500D01*
Y42750D01*
X99750Y44000D01*
X102250D01*
X103000Y43250D01*
Y41000D01*
X101750Y39750D01*
Y38750D01*
X102500Y37750D01*
X103750D01*
X105500Y36000D01*
Y29250D01*
X104250Y28000D01*
X100750D01*
Y27000D01*
X100000Y26500D01*
X66500D01*
X64750D01*
G37*
G36*
X7750Y38750D02*
Y21750D01*
X9250Y20250D01*
X13500D01*
Y20750D01*
X14750Y22000D01*
X17250D01*
X16250Y23500D01*
X23750D01*
Y24250D01*
X24000Y24000D01*
X41750D01*
X42000Y24250D01*
Y23500D01*
X100000D01*
X99750Y23000D01*
Y22500D01*
X90500D01*
Y20750D01*
X93750Y17500D01*
Y16500D01*
X95250D01*
X94500Y15500D01*
X90000D01*
X88500Y17000D01*
X69000D01*
X68250Y17750D01*
X51000D01*
Y18250D01*
X41750D01*
X40750Y17250D01*
X30750D01*
Y15250D01*
X29500D01*
Y17250D01*
X16000D01*
Y17750D01*
X15250D01*
Y18750D01*
X11500D01*
Y18500D01*
X8500D01*
Y18000D01*
X12500Y14000D01*
X18500D01*
X22000D01*
X22500Y13500D01*
X23000Y13000D01*
X24750D01*
X26250Y11500D01*
X26750D01*
Y12750D01*
X28000D01*
Y11500D01*
X29750D01*
Y12750D01*
X31250D01*
Y11500D01*
X40250D01*
X41250D01*
X40750Y11000D01*
X26000D01*
X24500Y12500D01*
X11750D01*
X4250Y20000D01*
Y35000D01*
X7750Y38750D01*
G37*
G36*
X13250Y1000D02*
Y8000D01*
X14750Y9500D01*
X19000D01*
X20750Y11250D01*
Y10250D01*
X21000Y10000D01*
X37750D01*
Y10250D01*
X38750D01*
Y11000D01*
X40750D01*
X42000Y12250D01*
X42500Y11000D01*
X47750D01*
Y10500D01*
X62500D01*
Y10000D01*
X88500D01*
X89750Y8750D01*
X90250Y9000D01*
X93750Y5500D01*
Y1000D01*
X90750D01*
Y6250D01*
X90250Y6750D01*
X69000D01*
X68750Y7000D01*
X46750D01*
Y6500D01*
X41250D01*
Y7250D01*
X41000Y7500D01*
X17000D01*
X16250Y6750D01*
Y1000D01*
X13250D01*
G37*
G36*
X13250Y16500D02*
X16250D01*
Y16000D01*
X13250D01*
Y16500D01*
G37*
G36*
X64750Y16000D02*
X67750D01*
Y16500D01*
X64750D01*
Y16000D01*
G37*
G36*
X64750Y1500D02*
X67750D01*
Y1000D01*
X64750D01*
Y1500D01*
G37*
G36*
X39250Y1500D02*
Y1000D01*
X42250D01*
Y1500D01*
X39250D01*
G37*
G36*
X39250Y16000D02*
Y16500D01*
X42250D01*
Y16000D01*
X39250D01*
G37*
D13*
X100000Y43500D02*
X99500Y43000D01*
X99750Y44000D02*
X102250D01*
X99500Y40750D02*
Y43000D01*
X97750Y39000D02*
X99500Y40750D01*
X100000Y43500D02*
X102000D01*
X97250Y39500D02*
X99000Y41250D01*
Y43250D01*
X98500Y42750D02*
Y41750D01*
X96750Y40000D02*
X98500Y41750D01*
X74500Y25000D02*
X94000D01*
X100500D01*
X16500D02*
X23000D01*
X24000Y24000D01*
X41750D01*
X42750Y25000D01*
X49250D01*
X68000D01*
X74500D01*
X24000Y23000D02*
X41750D01*
X16500D02*
X23000D01*
X41750D02*
X48250D01*
X67000D01*
X73500D01*
X93000D01*
X99500D01*
X43250Y22500D02*
X49750D01*
X68500D01*
X75000D01*
X94500D01*
X101000D01*
X22250Y23500D02*
X42000D01*
X22250D02*
X16250D01*
X24000Y23000D02*
X23000D01*
X42000Y23500D02*
X48500D01*
X67250D01*
X73750D01*
X93250D01*
X99750D01*
X17000Y22500D02*
X23500D01*
X43250D01*
X45750Y40750D02*
X35500D01*
X49250Y32250D02*
X48000Y33500D01*
X45750Y40750D02*
X49250Y37250D01*
X48000Y33500D02*
Y37750D01*
X34000Y42250D02*
X35500Y40750D01*
X48000Y37750D02*
X45500Y40250D01*
X35000D01*
X28750Y16250D02*
X18500D01*
X17750D02*
X18500D01*
X88500Y17000D02*
X90000Y15500D01*
X95250Y16250D02*
X94500Y15500D01*
X90000D01*
X68250Y17750D02*
X51250D01*
X68250D02*
X69000Y17000D01*
X88500D01*
X62000Y27000D02*
X50250D01*
X34000Y41250D02*
X35000Y40250D01*
X73250Y38500D02*
X68750Y34000D01*
X60000Y33250D02*
X60250Y33500D01*
X58000Y33250D02*
X58750Y34000D01*
X73500Y38000D02*
X98750D01*
X100500Y39750D01*
X56000Y33250D02*
X57250Y34500D01*
X73250Y38500D02*
X98250D01*
X100500Y40750D01*
X54000Y33250D02*
X55750Y35000D01*
X73000Y39000D02*
X97750D01*
X102000Y43500D02*
X102500Y43000D01*
Y41250D01*
X72750Y39500D02*
X97250D01*
X102500Y41250D02*
X102000Y40750D01*
X101500D01*
X58750Y34000D02*
X68750D01*
X102250Y44000D02*
X103000Y43250D01*
Y41000D01*
X72750Y39500D02*
X68250Y35000D01*
X103000Y41000D02*
X102000Y40000D01*
X101500Y39750D01*
X55750Y35000D02*
X68250D01*
X99750Y44000D02*
X99000Y43250D01*
X73500Y38000D02*
X69000Y33500D01*
X60250D01*
X73000Y39000D02*
X68500Y34500D01*
X57250D02*
X68500D01*
X45750Y40750D02*
X52000D01*
X57250Y35500D01*
X68000D01*
X72500Y40000D01*
X96750D01*
X28000Y32250D02*
X20750D01*
X58250Y37500D02*
X60000D01*
X62250Y39750D01*
X66750Y41080D02*
X66250Y40250D01*
X61750D02*
X60250Y38750D01*
X66250Y40250D02*
X61750D01*
X53500D02*
X55500Y42250D01*
X60250Y38750D02*
X56500D01*
X61230Y41080D02*
X61250Y41750D01*
X55500Y42250D02*
X56500D01*
D15*
X39250Y21250D02*
X89250D01*
X91750Y18750D01*
X39750Y20750D02*
X64000D01*
X40750Y20250D02*
X39250Y18750D01*
X42250Y19250D02*
X69000D01*
X90500Y20750D02*
X93750Y17500D01*
X105000Y29500D02*
Y35750D01*
X93750Y17500D02*
Y16250D01*
X88250Y9500D02*
X71000D01*
X69250Y8000D02*
X69500Y7750D01*
X71000Y20250D02*
Y18500D01*
X71500Y20250D02*
Y18500D01*
X72000Y20250D02*
Y18500D01*
X72500Y20250D02*
Y18500D01*
X92750Y5000D02*
Y1250D01*
X102500Y37750D02*
X103750D01*
X100500Y35750D02*
X99750D01*
X69250Y19000D02*
X69000Y19250D01*
X16250Y17250D02*
X40750D01*
X41750Y18250D01*
X68500D01*
X69250Y17500D01*
X89750D01*
X65500Y20250D02*
X41250D01*
X64500Y20750D02*
X89000D01*
X92750Y17000D01*
Y16250D01*
X66000Y19750D02*
X41250D01*
X42250Y8000D02*
X69250D01*
X90250Y9000D02*
X93750Y5500D01*
Y1250D01*
X15250D02*
Y8000D01*
X73500Y7750D02*
X69500D01*
X16250Y1250D02*
Y6750D01*
X17000Y7500D01*
X41000D02*
X41500Y7000D01*
X68750D01*
X69000Y6750D01*
X89500D01*
X72000Y9000D02*
X41250D01*
X88250Y9500D02*
X92750Y5000D01*
X72500Y8500D02*
X15750D01*
X15250Y8000D01*
X99000Y27000D02*
X100000Y28000D01*
X101500Y38750D02*
X102500Y37750D01*
X100000Y28000D02*
X104250D01*
X105500Y29250D01*
X101500Y37750D02*
X102000Y37250D01*
X98250Y35750D02*
X100000Y37500D01*
X101500Y36750D02*
X103250D01*
X98500Y35250D02*
X100000Y36750D01*
X105500Y36000D02*
Y29250D01*
X103500Y37250D02*
X105000Y35750D01*
Y29500D02*
X104000Y28500D01*
X99750D01*
X98750Y34750D02*
X99750Y35750D01*
Y28500D02*
X98500Y27250D01*
X104500Y35500D02*
Y29750D01*
X103750Y29000D01*
X99500D01*
X97500Y27750D02*
X99250Y29500D01*
X99500Y29000D02*
X98000Y27500D01*
X99250Y29500D02*
X103500D01*
X104000Y30000D01*
X101500Y33750D02*
X102000Y33500D01*
X104000Y30000D02*
Y35250D01*
X101500Y34750D02*
X103500Y32750D01*
X104000Y35250D02*
X103000Y36250D01*
X102000D01*
X103500Y32750D02*
Y30250D01*
X103250Y30000D01*
X95500D01*
X92500Y27000D01*
X103000Y32500D02*
Y30750D01*
X100500Y36750D02*
X100000D01*
X103000Y30750D02*
X102750Y30500D01*
X104500Y35500D02*
X103250Y36750D01*
X102750Y30500D02*
X95250D01*
X92000Y27250D01*
X91500Y27500D02*
X94500Y30500D01*
X91000Y27750D02*
X94250Y31000D01*
X101000D02*
X101500Y31750D01*
X73000Y27000D02*
X77750Y31750D01*
X100500D01*
X72500Y27250D02*
X77500Y32250D01*
X100250D01*
X72000Y27500D02*
X77250Y32750D01*
X99750D01*
X71500Y27750D02*
X77000Y33250D01*
X99500D01*
X66500Y27000D02*
X74250Y34750D01*
X98750D01*
X66000Y27250D02*
X74000Y35250D01*
X98500D01*
X65500Y27500D02*
X73750Y35750D01*
X98250D01*
X65000Y27750D02*
X73500Y36250D01*
X100500Y37750D02*
X100000Y37500D01*
X73500Y36250D02*
X98000D01*
X100500Y38750D02*
X98000Y36250D01*
X100500Y34750D02*
X99500Y33250D01*
X100500Y33750D02*
X99750Y32750D01*
X100500D02*
X100250Y32250D01*
X101000Y31000D02*
X94250D01*
X101500Y35750D02*
X102000Y36250D01*
X103500Y37250D02*
X102000D01*
X105500Y36000D02*
X103750Y37750D01*
X103000Y32500D02*
X102000Y33500D01*
X16250Y18250D02*
X39750D01*
X41250Y19750D02*
X39750Y18250D01*
X15500D02*
X16000Y18750D01*
X39250D02*
X16000D01*
X35500Y21000D02*
X15250D01*
X36000Y20500D02*
X15500D01*
X15250Y21000D02*
X14500Y20250D01*
X9250D01*
X36500Y20000D02*
X15750D01*
X15500Y20500D02*
X14750Y19750D01*
X9000D01*
X37000Y19500D02*
X16000D01*
X15750Y20000D02*
X15000Y19250D01*
X11500D01*
X16000Y19500D02*
X15250Y18750D01*
X11500D01*
Y19250D02*
X10500Y18750D01*
Y19250D02*
X8750D01*
X10500Y18750D02*
X8500D01*
X8000Y31750D02*
X7750Y31250D01*
X9250Y20250D02*
X7750Y21750D01*
Y31250D01*
X8750Y19250D02*
X6750Y21250D01*
X9000Y19750D02*
X7250Y21500D01*
Y32000D01*
X8500Y18750D02*
X6250Y21000D01*
X7250Y32000D02*
X8000Y32750D01*
X6750Y21250D02*
Y32500D01*
X8000Y33750D01*
X6250Y21000D02*
Y33000D01*
X8000Y34750D01*
X39250Y25250D02*
Y27000D01*
X40000Y27750D01*
X42000Y28750D02*
X61250D01*
X63500Y31000D01*
X41000Y7500D02*
X17000D01*
D16*
X21500Y11250D02*
X20750D01*
X19000Y9500D01*
X14750D01*
X40250Y1250D02*
Y5500D01*
X41250Y6500D02*
X46750D01*
X47750Y11000D02*
X42500D01*
X41250Y18750D02*
X40250Y17750D01*
X41250Y18750D02*
X68750D01*
X13500Y20750D02*
X14250D01*
X68750Y18750D02*
X69500Y18000D01*
X90000D01*
X14000Y21250D02*
X14750Y22000D01*
X90000Y18000D02*
X90750Y17250D01*
X38750Y21500D02*
X39000Y21750D01*
X90750Y17250D02*
Y16250D01*
X39000Y21750D02*
X63500D01*
X45000Y10000D02*
X88500D01*
X91750Y6750D01*
X45750Y9500D02*
X63250D01*
X40500Y9000D02*
X15250D01*
X19500Y8000D02*
X41250D01*
X41750Y7500D02*
X41250Y8000D01*
X41750Y7500D02*
X69000D01*
X15250Y9000D02*
X14250Y8000D01*
Y1250D01*
X20000Y9500D02*
X38000D01*
X69000Y7500D02*
X69250Y7250D01*
X14750Y9500D02*
X13250Y8000D01*
Y1250D01*
X69250Y7250D02*
X89750D01*
X20750Y10250D02*
X21000Y10000D01*
X89750Y7250D02*
X90750Y6250D01*
X38000Y9500D02*
X39000Y10500D01*
X90750Y6250D02*
Y1250D01*
X39000Y10500D02*
X62500D01*
X37750Y10000D02*
X21000D01*
X41500Y29750D02*
X43500D01*
X45500D01*
X47500D01*
X41500D02*
X40000D01*
X47500D02*
X54000D01*
X56000D01*
X58000D01*
X60000D01*
X41250Y6500D02*
X40250Y5500D01*
X26250Y11500D02*
X40250D01*
X44250Y27000D02*
X45500Y28250D01*
X15000Y21500D02*
X14250Y20750D01*
X40250Y17750D02*
X12500D01*
X38500Y22000D02*
X14750D01*
X15000Y21500D02*
X38750D01*
X29750Y16750D02*
Y15250D01*
X30500Y16750D02*
Y15250D01*
X21750Y14000D02*
X12500D01*
X22500Y13500D02*
X12250D01*
X12000Y13000D02*
X24750D01*
X26250Y11500D02*
X24750Y13000D01*
X42000Y12250D02*
X40750Y11000D01*
X26000D01*
X24500Y12500D01*
X11750D01*
X12500Y14000D02*
X5750Y20750D01*
X12250Y13500D02*
X5250Y20500D01*
X5750Y20750D02*
Y33500D01*
X8000Y35750D01*
X12000Y13000D02*
X4750Y20250D01*
X5250Y20500D02*
Y34000D01*
X8000Y36750D01*
X11750Y12500D02*
X4250Y20000D01*
X4750Y20250D02*
Y34500D01*
X8000Y37750D01*
X4250Y20000D02*
Y35000D01*
X8000Y38750D01*
X45500Y28250D02*
X61500D01*
X64000Y30750D01*
X18250Y28000D02*
Y34500D01*
X59500Y43000D02*
X60750Y41750D01*
X18250Y34500D02*
X26750Y43000D01*
X13000Y30000D02*
X26500Y43500D01*
X26750Y43000D02*
X59500D01*
X26500Y43500D02*
X58250D01*
X60000D02*
X60250Y43250D01*
X60750Y41750D02*
X61250D01*
X62250D02*
X62990Y42500D01*
X60250Y43250D02*
X62000D01*
X62590Y43200D01*
X60000Y43500D02*
X58250D01*
X62250Y41750D02*
X61250D01*
D19*
X39250Y21250D03*
X91750Y18750D03*
X39750Y20750D03*
X64000D03*
X40750Y20250D03*
X15500Y18250D03*
X90500Y20750D03*
X69250Y19000D03*
X42250Y19250D03*
X71000Y20250D03*
X71500D03*
X72000D03*
X72500D03*
X71000Y18500D03*
X71500D03*
X72000D03*
X72500D03*
X41750Y23000D03*
X16500D03*
X16250Y17250D03*
X89750Y17500D03*
X65500Y20250D03*
X66000Y19750D03*
X64500Y20750D03*
X37000Y19500D03*
X39250Y25250D03*
X41250Y20250D03*
X16250Y18250D03*
X90250Y9000D03*
X73500Y7750D03*
X42250Y8000D03*
X89500Y6750D03*
X72000Y9000D03*
X72500Y8500D03*
X71000Y9500D03*
X41250Y9000D03*
X23000Y25000D03*
X42750D03*
X16500D03*
X49250D03*
X68000D03*
X74500D03*
X94000D03*
X100500D03*
X48500Y23500D03*
X48250Y23000D03*
X24000D03*
X23000D03*
X67250Y23500D03*
X67000Y23000D03*
X73750Y23500D03*
X93250D03*
X99750D03*
X73500Y23000D03*
X93000D03*
X23500Y22500D03*
X43250D03*
X17000D03*
X99500Y23000D03*
X49750Y22500D03*
X68500D03*
X75000D03*
X94500D03*
X101000D03*
X42000Y23500D03*
X16250D03*
X22250D03*
X28750Y16250D03*
X62000Y27000D03*
X51250Y17750D03*
X50250Y27000D03*
X40000Y27750D03*
X98000Y27500D03*
X98500Y27250D03*
X99000Y27000D03*
X97500Y27750D03*
X71500D03*
X94500Y30500D03*
X92500Y27000D03*
X91500Y27500D03*
X92000Y27250D03*
X65000Y27750D03*
X72500Y27250D03*
X72000Y27500D03*
X73000Y27000D03*
X66500D03*
X66000Y27250D03*
X65500Y27500D03*
X91000Y27750D03*
X98500Y42750D03*
X36500Y20000D03*
X36000Y20500D03*
X35500Y21000D03*
X10500Y19250D03*
X20750Y32250D03*
X11500Y18750D03*
X42000Y28750D03*
X63500Y31000D03*
X62250Y39750D03*
D21*
X42750Y27000D02*
X40000Y29750D01*
X16500Y27000D02*
X17250Y26250D01*
X42750Y27000D02*
X40250Y24500D01*
X42750Y27000D02*
X43500Y26250D01*
X34000Y37250D02*
X35000Y36250D01*
X49250Y27000D02*
X50000Y26250D01*
X68000Y27000D02*
X68750Y26250D01*
X74500Y27000D02*
X75250Y26250D01*
X94000Y27000D02*
X94750Y26250D01*
X40250Y24500D02*
X27000D01*
X35000Y36250D02*
Y34750D01*
X27000Y24500D02*
X24500Y27000D01*
X35000Y36250D02*
X35500Y36750D01*
X46000D02*
X35500D01*
X35000Y34750D02*
X40000Y29750D01*
X49250Y27000D02*
X48500Y26250D01*
X43500D02*
X48500D01*
X68000Y27000D02*
X67250Y26250D01*
X50000D02*
X67250D01*
X74500Y27000D02*
X73750Y26250D01*
X68750D02*
X73750D01*
X94000Y27000D02*
X93250Y26250D01*
X75250D02*
X93250D01*
X100500Y27000D02*
X99750Y26250D01*
X94750D02*
X99750D01*
X24500Y27000D02*
X23750Y26250D01*
X17250D02*
X23750D01*
X96250Y40750D02*
X72250D01*
X67750Y36250D02*
X72250Y40750D01*
X53500Y40250D02*
X57500Y36250D01*
X67750D01*
X96250Y40750D02*
X97250Y41750D01*
D23*
X12500Y17750D03*
X21500Y11250D03*
X47750Y11000D03*
X46750Y6500D03*
X42500Y11000D03*
X16500Y27000D03*
X27000Y36250D03*
X23500D03*
X27000Y35250D03*
X23500D03*
X27000Y34250D03*
X23500D03*
X27000Y33250D03*
X23500D03*
X38500Y22000D03*
X63500Y21750D03*
X14000Y21250D03*
X13500Y20750D03*
X45000Y10000D03*
X91750Y6750D03*
X45750Y9500D03*
X63250D03*
X40500Y9000D03*
X19500Y8000D03*
X37750Y10000D03*
X62500Y10500D03*
X20750Y10250D03*
X20000Y9500D03*
X24500Y27000D03*
X42750D03*
X49250D03*
X68000D03*
X74500D03*
X94000D03*
X100500D03*
X51250Y40250D03*
X49250Y37250D03*
Y36250D03*
Y35250D03*
Y34250D03*
Y33250D03*
Y32250D03*
X52250Y31250D03*
Y32250D03*
Y33250D03*
Y34250D03*
Y35250D03*
Y36250D03*
Y38250D03*
X46000Y36750D03*
X47500Y33250D03*
Y29750D03*
X45500Y33250D03*
Y29750D03*
X43500Y33250D03*
Y29750D03*
X41500Y33250D03*
Y29750D03*
X60000Y33250D03*
Y29750D03*
X58000Y33250D03*
Y29750D03*
X56000Y33250D03*
Y29750D03*
X54000Y33250D03*
Y29750D03*
X64000Y30750D03*
X53500Y40250D03*
X97250Y41750D03*
X44250Y27000D03*
X40250Y11500D03*
X42000Y12250D03*
X18250Y28000D03*
X29750Y16750D03*
X30500D03*
X29750Y15250D03*
X30500D03*
X21750Y14000D03*
X22500Y13500D03*
X56500Y42250D03*
Y38750D03*
X13000Y30000D03*
X58250Y41000D03*
Y37500D03*
Y43500D03*
D25*
X100500Y42750D03*
Y41750D03*
Y40750D03*
Y39750D03*
Y38750D03*
Y37750D03*
Y36750D03*
Y35750D03*
Y34750D03*
Y33750D03*
Y32750D03*
Y31750D03*
X101500Y41750D03*
Y40750D03*
Y39750D03*
Y38750D03*
Y37750D03*
Y36750D03*
Y35750D03*
Y34750D03*
Y33750D03*
Y32750D03*
Y31750D03*
Y42750D03*
X28000Y42250D03*
Y41250D03*
Y40250D03*
Y39250D03*
Y38250D03*
Y36250D03*
Y35250D03*
Y34250D03*
Y33250D03*
Y32250D03*
Y31250D03*
Y30250D03*
Y29250D03*
Y28250D03*
Y27250D03*
Y26250D03*
X34000Y42250D03*
Y41250D03*
Y40250D03*
Y38250D03*
Y37250D03*
Y36250D03*
Y35250D03*
Y34250D03*
Y33250D03*
Y32250D03*
Y31250D03*
Y30250D03*
Y29250D03*
Y28250D03*
Y27250D03*
Y26250D03*
X28000Y25250D03*
X34000D03*
X9000Y42750D03*
Y41750D03*
X8000Y40750D03*
X9000D03*
Y39750D03*
X8000D03*
Y38750D03*
X9000D03*
Y37750D03*
X8000D03*
Y36750D03*
X9000D03*
Y35750D03*
X8000D03*
Y34750D03*
X9000D03*
Y33750D03*
X8000D03*
Y32750D03*
X9000D03*
X8000Y31750D03*
X9000D03*
X62230Y41080D03*
X66750D03*
X61230D03*
X62590Y43200D03*
X63390D03*
X64190D03*
X64990D03*
X65390Y42500D03*
X64590D03*
X63790D03*
X62990D03*
D26*
X13250Y16250D03*
X14250D03*
X15250D03*
X16250D03*
X17750D03*
X13250Y1250D03*
X14250D03*
X15250D03*
X16250D03*
X39250Y16250D03*
X40250D03*
X41250D03*
X42250D03*
X43750D03*
X39250Y1250D03*
X40250D03*
X41250D03*
X42250D03*
X64750Y16250D03*
X65750D03*
X66750D03*
X67750D03*
X69250D03*
X64750Y1250D03*
X65750D03*
X66750D03*
X67750D03*
X90750Y16250D03*
X91750D03*
X92750D03*
X93750D03*
X95250D03*
X90750Y1250D03*
X91750D03*
X92750D03*
X93750D03*
D28*
X66250Y42500D03*
X61730D03*
D30*
X4560Y12690D03*
Y4820D03*
X27390Y12690D03*
Y4820D03*
X30560Y12690D03*
Y4820D03*
X53390Y12690D03*
Y4820D03*
X56060Y12690D03*
Y4820D03*
X78890Y12690D03*
Y4820D03*
X82060Y12690D03*
Y4820D03*
X104890Y12690D03*
Y4820D03*
X2250Y2250D03*
X107250D03*
Y43000D03*
X2250D03*
D33*
X49250Y38250D03*
%LPD*%
D10*
X100000Y43500D02*
X99500Y43000D01*
X99750Y44000D02*
X102250D01*
X99500Y40750D02*
Y43000D01*
X97750Y39000D02*
X99500Y40750D01*
X100000Y43500D02*
X102000D01*
X97250Y39500D02*
X99000Y41250D01*
Y43250D01*
X98500Y42750D02*
Y41750D01*
X96750Y40000D02*
X98500Y41750D01*
X74500Y25000D02*
X94000D01*
X100500D01*
X16500D02*
X23000D01*
X24000Y24000D01*
X41750D01*
X42750Y25000D01*
X49250D01*
X68000D01*
X74500D01*
X24000Y23000D02*
X41750D01*
X16500D02*
X23000D01*
X41750D02*
X48250D01*
X67000D01*
X73500D01*
X93000D01*
X99500D01*
X43250Y22500D02*
X49750D01*
X68500D01*
X75000D01*
X94500D01*
X101000D01*
X22250Y23500D02*
X42000D01*
X22250D02*
X16250D01*
X24000Y23000D02*
X23000D01*
X42000Y23500D02*
X48500D01*
X67250D01*
X73750D01*
X93250D01*
X99750D01*
X17000Y22500D02*
X23500D01*
X43250D01*
X45750Y40750D02*
X35500D01*
X49250Y32250D02*
X48000Y33500D01*
X45750Y40750D02*
X49250Y37250D01*
X48000Y33500D02*
Y37750D01*
X34000Y42250D02*
X35500Y40750D01*
X48000Y37750D02*
X45500Y40250D01*
X35000D01*
X28750Y16250D02*
X18500D01*
X17750D02*
X18500D01*
X88500Y17000D02*
X90000Y15500D01*
X95250Y16250D02*
X94500Y15500D01*
X90000D01*
X68250Y17750D02*
X51250D01*
X68250D02*
X69000Y17000D01*
X88500D01*
X62000Y27000D02*
X50250D01*
X34000Y41250D02*
X35000Y40250D01*
X73250Y38500D02*
X68750Y34000D01*
X60000Y33250D02*
X60250Y33500D01*
X58000Y33250D02*
X58750Y34000D01*
X73500Y38000D02*
X98750D01*
X100500Y39750D01*
X56000Y33250D02*
X57250Y34500D01*
X73250Y38500D02*
X98250D01*
X100500Y40750D01*
X54000Y33250D02*
X55750Y35000D01*
X73000Y39000D02*
X97750D01*
X102000Y43500D02*
X102500Y43000D01*
Y41250D01*
X72750Y39500D02*
X97250D01*
X102500Y41250D02*
X102000Y40750D01*
X101500D01*
X58750Y34000D02*
X68750D01*
X102250Y44000D02*
X103000Y43250D01*
Y41000D01*
X72750Y39500D02*
X68250Y35000D01*
X103000Y41000D02*
X102000Y40000D01*
X101500Y39750D01*
X55750Y35000D02*
X68250D01*
X99750Y44000D02*
X99000Y43250D01*
X73500Y38000D02*
X69000Y33500D01*
X60250D01*
X73000Y39000D02*
X68500Y34500D01*
X57250D02*
X68500D01*
X45750Y40750D02*
X52000D01*
X57250Y35500D01*
X68000D01*
X72500Y40000D01*
X96750D01*
X28000Y32250D02*
X20750D01*
X58250Y37500D02*
X60000D01*
X62250Y39750D01*
X66750Y41080D02*
X66250Y40250D01*
X61750D02*
X60250Y38750D01*
X66250Y40250D02*
X61750D01*
X53500D02*
X55500Y42250D01*
X60250Y38750D02*
X56500D01*
X61230Y41080D02*
X61250Y41750D01*
X55500Y42250D02*
X56500D01*
D11*
X39250Y21250D02*
X89250D01*
X91750Y18750D01*
X39750Y20750D02*
X64000D01*
X40750Y20250D02*
X39250Y18750D01*
X42250Y19250D02*
X69000D01*
X90500Y20750D02*
X93750Y17500D01*
X105000Y29500D02*
Y35750D01*
X93750Y17500D02*
Y16250D01*
X88250Y9500D02*
X71000D01*
X69250Y8000D02*
X69500Y7750D01*
X71000Y20250D02*
Y18500D01*
X71500Y20250D02*
Y18500D01*
X72000Y20250D02*
Y18500D01*
X72500Y20250D02*
Y18500D01*
X92750Y5000D02*
Y1250D01*
X102500Y37750D02*
X103750D01*
X100500Y35750D02*
X99750D01*
X69250Y19000D02*
X69000Y19250D01*
X16250Y17250D02*
X40750D01*
X41750Y18250D01*
X68500D01*
X69250Y17500D01*
X89750D01*
X65500Y20250D02*
X41250D01*
X64500Y20750D02*
X89000D01*
X92750Y17000D01*
Y16250D01*
X66000Y19750D02*
X41250D01*
X42250Y8000D02*
X69250D01*
X90250Y9000D02*
X93750Y5500D01*
Y1250D01*
X15250D02*
Y8000D01*
X73500Y7750D02*
X69500D01*
X16250Y1250D02*
Y6750D01*
X17000Y7500D01*
X41000D02*
X41500Y7000D01*
X68750D01*
X69000Y6750D01*
X89500D01*
X72000Y9000D02*
X41250D01*
X88250Y9500D02*
X92750Y5000D01*
X72500Y8500D02*
X15750D01*
X15250Y8000D01*
X99000Y27000D02*
X100000Y28000D01*
X101500Y38750D02*
X102500Y37750D01*
X100000Y28000D02*
X104250D01*
X105500Y29250D01*
X101500Y37750D02*
X102000Y37250D01*
X98250Y35750D02*
X100000Y37500D01*
X101500Y36750D02*
X103250D01*
X98500Y35250D02*
X100000Y36750D01*
X105500Y36000D02*
Y29250D01*
X103500Y37250D02*
X105000Y35750D01*
Y29500D02*
X104000Y28500D01*
X99750D01*
X98750Y34750D02*
X99750Y35750D01*
Y28500D02*
X98500Y27250D01*
X104500Y35500D02*
Y29750D01*
X103750Y29000D01*
X99500D01*
X97500Y27750D02*
X99250Y29500D01*
X99500Y29000D02*
X98000Y27500D01*
X99250Y29500D02*
X103500D01*
X104000Y30000D01*
X101500Y33750D02*
X102000Y33500D01*
X104000Y30000D02*
Y35250D01*
X101500Y34750D02*
X103500Y32750D01*
X104000Y35250D02*
X103000Y36250D01*
X102000D01*
X103500Y32750D02*
Y30250D01*
X103250Y30000D01*
X95500D01*
X92500Y27000D01*
X103000Y32500D02*
Y30750D01*
X100500Y36750D02*
X100000D01*
X103000Y30750D02*
X102750Y30500D01*
X104500Y35500D02*
X103250Y36750D01*
X102750Y30500D02*
X95250D01*
X92000Y27250D01*
X91500Y27500D02*
X94500Y30500D01*
X91000Y27750D02*
X94250Y31000D01*
X101000D02*
X101500Y31750D01*
X73000Y27000D02*
X77750Y31750D01*
X100500D01*
X72500Y27250D02*
X77500Y32250D01*
X100250D01*
X72000Y27500D02*
X77250Y32750D01*
X99750D01*
X71500Y27750D02*
X77000Y33250D01*
X99500D01*
X66500Y27000D02*
X74250Y34750D01*
X98750D01*
X66000Y27250D02*
X74000Y35250D01*
X98500D01*
X65500Y27500D02*
X73750Y35750D01*
X98250D01*
X65000Y27750D02*
X73500Y36250D01*
X100500Y37750D02*
X100000Y37500D01*
X73500Y36250D02*
X98000D01*
X100500Y38750D02*
X98000Y36250D01*
X100500Y34750D02*
X99500Y33250D01*
X100500Y33750D02*
X99750Y32750D01*
X100500D02*
X100250Y32250D01*
X101000Y31000D02*
X94250D01*
X101500Y35750D02*
X102000Y36250D01*
X103500Y37250D02*
X102000D01*
X105500Y36000D02*
X103750Y37750D01*
X103000Y32500D02*
X102000Y33500D01*
X16250Y18250D02*
X39750D01*
X41250Y19750D02*
X39750Y18250D01*
X15500D02*
X16000Y18750D01*
X39250D02*
X16000D01*
X35500Y21000D02*
X15250D01*
X36000Y20500D02*
X15500D01*
X15250Y21000D02*
X14500Y20250D01*
X9250D01*
X36500Y20000D02*
X15750D01*
X15500Y20500D02*
X14750Y19750D01*
X9000D01*
X37000Y19500D02*
X16000D01*
X15750Y20000D02*
X15000Y19250D01*
X11500D01*
X16000Y19500D02*
X15250Y18750D01*
X11500D01*
Y19250D02*
X10500Y18750D01*
Y19250D02*
X8750D01*
X10500Y18750D02*
X8500D01*
X8000Y31750D02*
X7750Y31250D01*
X9250Y20250D02*
X7750Y21750D01*
Y31250D01*
X8750Y19250D02*
X6750Y21250D01*
X9000Y19750D02*
X7250Y21500D01*
Y32000D01*
X8500Y18750D02*
X6250Y21000D01*
X7250Y32000D02*
X8000Y32750D01*
X6750Y21250D02*
Y32500D01*
X8000Y33750D01*
X6250Y21000D02*
Y33000D01*
X8000Y34750D01*
X39250Y25250D02*
Y27000D01*
X40000Y27750D01*
X42000Y28750D02*
X61250D01*
X63500Y31000D01*
X41000Y7500D02*
X17000D01*
D12*
X21500Y11250D02*
X20750D01*
X19000Y9500D01*
X14750D01*
X40250Y1250D02*
Y5500D01*
X41250Y6500D02*
X46750D01*
X47750Y11000D02*
X42500D01*
X41250Y18750D02*
X40250Y17750D01*
X41250Y18750D02*
X68750D01*
X13500Y20750D02*
X14250D01*
X68750Y18750D02*
X69500Y18000D01*
X90000D01*
X14000Y21250D02*
X14750Y22000D01*
X90000Y18000D02*
X90750Y17250D01*
X38750Y21500D02*
X39000Y21750D01*
X90750Y17250D02*
Y16250D01*
X39000Y21750D02*
X63500D01*
X45000Y10000D02*
X88500D01*
X91750Y6750D01*
X45750Y9500D02*
X63250D01*
X40500Y9000D02*
X15250D01*
X19500Y8000D02*
X41250D01*
X41750Y7500D02*
X41250Y8000D01*
X41750Y7500D02*
X69000D01*
X15250Y9000D02*
X14250Y8000D01*
Y1250D01*
X20000Y9500D02*
X38000D01*
X69000Y7500D02*
X69250Y7250D01*
X14750Y9500D02*
X13250Y8000D01*
Y1250D01*
X69250Y7250D02*
X89750D01*
X20750Y10250D02*
X21000Y10000D01*
X89750Y7250D02*
X90750Y6250D01*
X38000Y9500D02*
X39000Y10500D01*
X90750Y6250D02*
Y1250D01*
X39000Y10500D02*
X62500D01*
X37750Y10000D02*
X21000D01*
X41500Y29750D02*
X43500D01*
X45500D01*
X47500D01*
X41500D02*
X40000D01*
X47500D02*
X54000D01*
X56000D01*
X58000D01*
X60000D01*
X41250Y6500D02*
X40250Y5500D01*
X26250Y11500D02*
X40250D01*
X44250Y27000D02*
X45500Y28250D01*
X15000Y21500D02*
X14250Y20750D01*
X40250Y17750D02*
X12500D01*
X38500Y22000D02*
X14750D01*
X15000Y21500D02*
X38750D01*
X29750Y16750D02*
Y15250D01*
X30500Y16750D02*
Y15250D01*
X21750Y14000D02*
X12500D01*
X22500Y13500D02*
X12250D01*
X12000Y13000D02*
X24750D01*
X26250Y11500D02*
X24750Y13000D01*
X42000Y12250D02*
X40750Y11000D01*
X26000D01*
X24500Y12500D01*
X11750D01*
X12500Y14000D02*
X5750Y20750D01*
X12250Y13500D02*
X5250Y20500D01*
X5750Y20750D02*
Y33500D01*
X8000Y35750D01*
X12000Y13000D02*
X4750Y20250D01*
X5250Y20500D02*
Y34000D01*
X8000Y36750D01*
X11750Y12500D02*
X4250Y20000D01*
X4750Y20250D02*
Y34500D01*
X8000Y37750D01*
X4250Y20000D02*
Y35000D01*
X8000Y38750D01*
X45500Y28250D02*
X61500D01*
X64000Y30750D01*
X18250Y28000D02*
Y34500D01*
X59500Y43000D02*
X60750Y41750D01*
X18250Y34500D02*
X26750Y43000D01*
X13000Y30000D02*
X26500Y43500D01*
X26750Y43000D02*
X59500D01*
X26500Y43500D02*
X58250D01*
X60000D02*
X60250Y43250D01*
X60750Y41750D02*
X61250D01*
X62250D02*
X62990Y42500D01*
X60250Y43250D02*
X62000D01*
X62590Y43200D01*
X60000Y43500D02*
X58250D01*
X62250Y41750D02*
X61250D01*
D14*
X39250Y21250D03*
X91750Y18750D03*
X39750Y20750D03*
X64000D03*
X40750Y20250D03*
X15500Y18250D03*
X90500Y20750D03*
X69250Y19000D03*
X42250Y19250D03*
X71000Y20250D03*
X71500D03*
X72000D03*
X72500D03*
X71000Y18500D03*
X71500D03*
X72000D03*
X72500D03*
X41750Y23000D03*
X16500D03*
X16250Y17250D03*
X89750Y17500D03*
X65500Y20250D03*
X66000Y19750D03*
X64500Y20750D03*
X37000Y19500D03*
X39250Y25250D03*
X41250Y20250D03*
X16250Y18250D03*
X90250Y9000D03*
X73500Y7750D03*
X42250Y8000D03*
X89500Y6750D03*
X72000Y9000D03*
X72500Y8500D03*
X71000Y9500D03*
X41250Y9000D03*
X23000Y25000D03*
X42750D03*
X16500D03*
X49250D03*
X68000D03*
X74500D03*
X94000D03*
X100500D03*
X48500Y23500D03*
X48250Y23000D03*
X24000D03*
X23000D03*
X67250Y23500D03*
X67000Y23000D03*
X73750Y23500D03*
X93250D03*
X99750D03*
X73500Y23000D03*
X93000D03*
X23500Y22500D03*
X43250D03*
X17000D03*
X99500Y23000D03*
X49750Y22500D03*
X68500D03*
X75000D03*
X94500D03*
X101000D03*
X42000Y23500D03*
X16250D03*
X22250D03*
X28750Y16250D03*
X62000Y27000D03*
X51250Y17750D03*
X50250Y27000D03*
X40000Y27750D03*
X98000Y27500D03*
X98500Y27250D03*
X99000Y27000D03*
X97500Y27750D03*
X71500D03*
X94500Y30500D03*
X92500Y27000D03*
X91500Y27500D03*
X92000Y27250D03*
X65000Y27750D03*
X72500Y27250D03*
X72000Y27500D03*
X73000Y27000D03*
X66500D03*
X66000Y27250D03*
X65500Y27500D03*
X91000Y27750D03*
X98500Y42750D03*
X36500Y20000D03*
X36000Y20500D03*
X35500Y21000D03*
X10500Y19250D03*
X20750Y32250D03*
X11500Y18750D03*
X42000Y28750D03*
X63500Y31000D03*
X62250Y39750D03*
D17*
X42750Y27000D02*
X40000Y29750D01*
X16500Y27000D02*
X17250Y26250D01*
X42750Y27000D02*
X40250Y24500D01*
X42750Y27000D02*
X43500Y26250D01*
X34000Y37250D02*
X35000Y36250D01*
X49250Y27000D02*
X50000Y26250D01*
X68000Y27000D02*
X68750Y26250D01*
X74500Y27000D02*
X75250Y26250D01*
X94000Y27000D02*
X94750Y26250D01*
X40250Y24500D02*
X27000D01*
X35000Y36250D02*
Y34750D01*
X27000Y24500D02*
X24500Y27000D01*
X35000Y36250D02*
X35500Y36750D01*
X46000D02*
X35500D01*
X35000Y34750D02*
X40000Y29750D01*
X49250Y27000D02*
X48500Y26250D01*
X43500D02*
X48500D01*
X68000Y27000D02*
X67250Y26250D01*
X50000D02*
X67250D01*
X74500Y27000D02*
X73750Y26250D01*
X68750D02*
X73750D01*
X94000Y27000D02*
X93250Y26250D01*
X75250D02*
X93250D01*
X100500Y27000D02*
X99750Y26250D01*
X94750D02*
X99750D01*
X24500Y27000D02*
X23750Y26250D01*
X17250D02*
X23750D01*
X96250Y40750D02*
X72250D01*
X67750Y36250D02*
X72250Y40750D01*
X53500Y40250D02*
X57500Y36250D01*
X67750D01*
X96250Y40750D02*
X97250Y41750D01*
D18*
X12500Y17750D03*
X21500Y11250D03*
X47750Y11000D03*
X46750Y6500D03*
X42500Y11000D03*
X16500Y27000D03*
Y26000D03*
X27000Y36250D03*
X23500D03*
X27000Y35250D03*
X23500D03*
X27000Y34250D03*
X23500D03*
X27000Y33250D03*
X23500D03*
X38500Y22000D03*
X63500Y21750D03*
X14000Y21250D03*
X13500Y20750D03*
X45000Y10000D03*
X91750Y6750D03*
X45750Y9500D03*
X63250D03*
X40500Y9000D03*
X19500Y8000D03*
X37750Y10000D03*
X62500Y10500D03*
X20750Y10250D03*
X20000Y9500D03*
X24500Y27000D03*
Y26000D03*
X42750Y27000D03*
Y26000D03*
X49250Y27000D03*
Y26000D03*
X68000Y27000D03*
Y26000D03*
X74500Y27000D03*
Y26000D03*
X94000Y27000D03*
Y26000D03*
X100500Y27000D03*
Y26000D03*
X22000Y25500D03*
X50250Y41750D03*
X41750Y27000D03*
X51250Y40250D03*
X50250D03*
X49250Y37250D03*
Y36250D03*
Y35250D03*
Y34250D03*
Y33250D03*
Y32250D03*
Y31250D03*
X52250D03*
Y32250D03*
Y33250D03*
Y34250D03*
Y35250D03*
Y36250D03*
Y37250D03*
Y38250D03*
X46000Y36750D03*
X47500Y33250D03*
Y29750D03*
X45500Y33250D03*
Y29750D03*
X43500Y33250D03*
Y29750D03*
X41500Y33250D03*
Y29750D03*
X60000Y33250D03*
Y29750D03*
X58000Y33250D03*
Y29750D03*
X56000Y33250D03*
Y29750D03*
X54000Y33250D03*
Y29750D03*
X64000Y30750D03*
X53500Y40250D03*
X97250Y41750D03*
X44250Y27000D03*
X40250Y11500D03*
X42000Y12250D03*
X18250Y28000D03*
X29750Y16750D03*
X30500D03*
X29750Y15250D03*
X30500D03*
X21750Y14000D03*
X22500Y13500D03*
X56500Y42250D03*
Y38750D03*
X13000Y30000D03*
X58250Y41000D03*
Y37500D03*
Y43500D03*
D20*
X100500Y42750D03*
Y41750D03*
Y40750D03*
Y39750D03*
Y38750D03*
Y37750D03*
Y36750D03*
Y35750D03*
Y34750D03*
Y33750D03*
Y32750D03*
Y31750D03*
X101500Y41750D03*
Y40750D03*
Y39750D03*
Y38750D03*
Y37750D03*
Y36750D03*
Y35750D03*
Y34750D03*
Y33750D03*
Y32750D03*
Y31750D03*
Y42750D03*
X28000Y42250D03*
Y41250D03*
Y40250D03*
Y39250D03*
Y38250D03*
Y37250D03*
Y36250D03*
Y35250D03*
Y34250D03*
Y33250D03*
Y32250D03*
Y31250D03*
Y30250D03*
Y29250D03*
Y28250D03*
Y27250D03*
Y26250D03*
X34000Y42250D03*
Y41250D03*
Y40250D03*
Y39250D03*
Y38250D03*
Y37250D03*
Y36250D03*
Y35250D03*
Y34250D03*
Y33250D03*
Y32250D03*
Y31250D03*
Y30250D03*
Y29250D03*
Y28250D03*
Y27250D03*
Y26250D03*
X28000Y25250D03*
X34000D03*
X8000Y42750D03*
X9000D03*
Y41750D03*
X8000D03*
Y40750D03*
X9000D03*
Y39750D03*
X8000D03*
Y38750D03*
X9000D03*
Y37750D03*
X8000D03*
Y36750D03*
X9000D03*
Y35750D03*
X8000D03*
Y34750D03*
X9000D03*
Y33750D03*
X8000D03*
Y32750D03*
X9000D03*
X8000Y31750D03*
X9000D03*
X62230Y41080D03*
X65750D03*
X66750D03*
X61230D03*
X62590Y43200D03*
X63390D03*
X64190D03*
X64990D03*
X65390Y42500D03*
X64590D03*
X63790D03*
X62990D03*
D22*
X13250Y16250D03*
X14250D03*
X15250D03*
X16250D03*
X17750D03*
Y15250D03*
X13250Y1250D03*
X14250D03*
X15250D03*
X16250D03*
X39250Y16250D03*
X40250D03*
X41250D03*
X42250D03*
X43750D03*
Y15250D03*
X39250Y1250D03*
X40250D03*
X41250D03*
X42250D03*
X64750Y16250D03*
X65750D03*
X66750D03*
X67750D03*
X69250D03*
Y15250D03*
X64750Y1250D03*
X65750D03*
X66750D03*
X67750D03*
X90750Y16250D03*
X91750D03*
X92750D03*
X93750D03*
X95250D03*
Y15250D03*
X90750Y1250D03*
X91750D03*
X92750D03*
X93750D03*
D24*
X66250Y42500D03*
X61730D03*
D27*
X67140Y44340D03*
X60840D03*
D29*
X4560Y12690D03*
Y4820D03*
X27390Y12690D03*
Y4820D03*
X30560Y12690D03*
Y4820D03*
X53390Y12690D03*
Y4820D03*
X56060Y12690D03*
Y4820D03*
X78890Y12690D03*
Y4820D03*
X82060Y12690D03*
Y4820D03*
X104890Y12690D03*
Y4820D03*
X2250Y2250D03*
X107250D03*
Y43000D03*
X2250D03*
D32*
X49250Y38250D03*
M02*
