G04*
%FSLAX24Y24*%
%MOIN*%
%LNTopSolderMask*%
%ADD10C,.047*%
%ADD11C,.066*%
%ADD12C,.075*%
%ADD13C,.085*%
%ADD14C,.094*%
%ADD15C,.11*%
%ADD16C,.17*%
%ADD17R,.006X.006*%
%ADD18R,.066X.066*%
%ADD19R,.036X.09*%
D10*
G01X39250Y21250D03*
X91750Y18750D03*
X39750Y20750D03*
X64000D03*
X40750Y20250D03*
X15500Y18250D03*
X90500Y20750D03*
X69250Y19000D03*
X42250Y19250D03*
X71000Y20250D03*
X71500D03*
X72000D03*
X72500D03*
X71000Y18500D03*
X71500D03*
X72000D03*
X72500D03*
X41750Y23000D03*
X16500D03*
X29000Y29750D03*
X28500Y44000D03*
X36500Y40250D03*
X36000Y40750D03*
X16250Y17250D03*
X89750Y17500D03*
X65500Y20250D03*
X66000Y19750D03*
X64500Y20750D03*
X37000Y19500D03*
X39250Y25250D03*
X41250Y20250D03*
X16250Y18250D03*
X90250Y9000D03*
X73500Y7750D03*
X42250Y8000D03*
X89500Y6750D03*
X72000Y9000D03*
X72500Y8500D03*
X71000Y9500D03*
X41250Y9000D03*
X23000Y25000D03*
X42750D03*
X16500D03*
X49250D03*
X68000D03*
X74500D03*
X94000D03*
X100500D03*
X48500Y23500D03*
X48250Y23000D03*
X24000D03*
X23000D03*
X67250Y23500D03*
X67000Y23000D03*
X73750Y23500D03*
X93250D03*
X99750D03*
X73500Y23000D03*
X93000D03*
X23500Y22500D03*
X43250D03*
X17000D03*
X99500Y23000D03*
X49750Y22500D03*
X68500D03*
X75000D03*
X94500D03*
X101000D03*
X42000Y23500D03*
X16250D03*
X22250D03*
X29500Y36250D03*
X28750Y16250D03*
X62000Y27000D03*
X51250Y17750D03*
X50250Y27000D03*
X40000Y27750D03*
X98000Y27500D03*
X98500Y27250D03*
X99000Y27000D03*
X97500Y27750D03*
X71500D03*
X94500Y30500D03*
X92500Y27000D03*
X91500Y27500D03*
X92000Y27250D03*
X65000Y27750D03*
X72500Y27250D03*
X72000Y27500D03*
X73000Y27000D03*
X66500D03*
X66000Y27250D03*
X65500Y27500D03*
X91000Y27750D03*
X98500Y42750D03*
X36500Y20000D03*
X36000Y20500D03*
X35500Y21000D03*
X10500Y19250D03*
X11250Y41750D03*
X11500Y18750D03*
X42000Y28750D03*
X63500Y31000D03*
X62250Y39750D03*
D11*
X12500Y17750D03*
X21500Y11250D03*
X47750Y11000D03*
X46750Y6500D03*
X42500Y11000D03*
X16500Y27000D03*
Y26000D03*
X24750Y32000D03*
X21250D03*
X24750Y33000D03*
X21250D03*
X24750Y34000D03*
X21250D03*
X24750Y35000D03*
X21250D03*
X38500Y22000D03*
X63500Y21750D03*
X14000Y21250D03*
X13500Y20750D03*
X45000Y10000D03*
X91750Y6750D03*
X45750Y9500D03*
X63250D03*
X40500Y9000D03*
X19500Y8000D03*
X37750Y10000D03*
X62500Y10500D03*
X20750Y10250D03*
X20000Y9500D03*
X24500Y27000D03*
Y26000D03*
X42750Y27000D03*
Y26000D03*
X49250Y27000D03*
Y26000D03*
X68000Y27000D03*
Y26000D03*
X74500Y27000D03*
Y26000D03*
X94000Y27000D03*
Y26000D03*
X100500Y27000D03*
Y26000D03*
X22000Y25500D03*
X50250Y41750D03*
X41750Y27000D03*
X51250Y40250D03*
X50250D03*
X49250Y37250D03*
Y36250D03*
Y35250D03*
Y34250D03*
Y33250D03*
Y32250D03*
Y31250D03*
X52250D03*
Y32250D03*
Y33250D03*
Y34250D03*
Y35250D03*
Y36250D03*
Y37250D03*
Y38250D03*
X46000Y36750D03*
X47500Y33250D03*
Y29750D03*
X45500Y33250D03*
Y29750D03*
X43500Y33250D03*
Y29750D03*
X41500Y33250D03*
Y29750D03*
X60000Y33250D03*
Y29750D03*
X58000Y33250D03*
Y29750D03*
X56000Y33250D03*
Y29750D03*
X54000Y33250D03*
Y29750D03*
X64000Y30750D03*
X53500Y40250D03*
X97250Y41750D03*
X44250Y27000D03*
X40250Y11500D03*
X42000Y12250D03*
X18250Y28000D03*
X29750Y16750D03*
X30500D03*
X29750Y15250D03*
X30500D03*
X21750Y14000D03*
X22500Y13500D03*
X56500Y42250D03*
Y38750D03*
X13000Y30000D03*
X58250Y41000D03*
Y37500D03*
Y43500D03*
D12*
X100500Y42750D03*
Y41750D03*
Y40750D03*
Y39750D03*
Y38750D03*
Y37750D03*
Y36750D03*
Y35750D03*
Y34750D03*
Y33750D03*
Y32750D03*
Y31750D03*
X101500Y41750D03*
Y40750D03*
Y39750D03*
Y38750D03*
Y37750D03*
Y36750D03*
Y35750D03*
Y34750D03*
Y33750D03*
Y32750D03*
Y31750D03*
Y42750D03*
X28000Y42250D03*
Y41250D03*
Y40250D03*
Y39250D03*
Y38250D03*
Y37250D03*
Y36250D03*
Y35250D03*
Y34250D03*
Y33250D03*
Y32250D03*
Y31250D03*
Y30250D03*
Y29250D03*
Y28250D03*
Y27250D03*
Y26250D03*
X34000Y42250D03*
Y41250D03*
Y40250D03*
Y39250D03*
Y38250D03*
Y37250D03*
Y36250D03*
Y35250D03*
Y34250D03*
Y33250D03*
Y32250D03*
Y31250D03*
Y30250D03*
Y29250D03*
Y28250D03*
Y27250D03*
Y26250D03*
X28000Y25250D03*
X34000D03*
X8000Y42750D03*
X9000D03*
Y41750D03*
X8000D03*
Y40750D03*
X9000D03*
Y39750D03*
X8000D03*
Y38750D03*
X9000D03*
Y37750D03*
X8000D03*
Y36750D03*
X9000D03*
Y35750D03*
X8000D03*
Y34750D03*
X9000D03*
Y33750D03*
X8000D03*
Y32750D03*
X9000D03*
X8000Y31750D03*
X9000D03*
X62230Y41080D03*
X65750D03*
X66750D03*
X61230D03*
X62590Y43200D03*
X63390D03*
X64190D03*
X64990D03*
X65390Y42500D03*
X64590D03*
X63790D03*
X62990D03*
D13*
X13250Y16250D03*
X14250D03*
X15250D03*
X16250D03*
X17750D03*
Y15250D03*
X13250Y1250D03*
X14250D03*
X15250D03*
X16250D03*
X39250Y16250D03*
X40250D03*
X41250D03*
X42250D03*
X43750D03*
Y15250D03*
X39250Y1250D03*
X40250D03*
X41250D03*
X42250D03*
X64750Y16250D03*
X65750D03*
X66750D03*
X67750D03*
X69250D03*
Y15250D03*
X64750Y1250D03*
X65750D03*
X66750D03*
X67750D03*
X90750Y16250D03*
X91750D03*
X92750D03*
X93750D03*
X95250D03*
Y15250D03*
X90750Y1250D03*
X91750D03*
X92750D03*
X93750D03*
D14*
X66250Y42500D03*
X61730D03*
D15*
X67140Y44340D03*
X60840D03*
D16*
X4560Y12690D03*
Y4820D03*
X27390Y12690D03*
Y4820D03*
X30560Y12690D03*
Y4820D03*
X53390Y12690D03*
Y4820D03*
X56060Y12690D03*
Y4820D03*
X78890Y12690D03*
Y4820D03*
X82060Y12690D03*
Y4820D03*
X104890Y12690D03*
Y4820D03*
X2250Y2250D03*
X107250D03*
Y43000D03*
X2250D03*
D18*
X49250Y38250D03*
D19*
X16500Y24250D03*
X16000D03*
X15500D03*
X15000D03*
X14500D03*
X14000D03*
X13500D03*
X13000D03*
Y22000D03*
X13500D03*
X14000D03*
X14500D03*
X15000D03*
X15500D03*
X16000D03*
X16500D03*
X68000Y24250D03*
X67500D03*
X67000D03*
X66500D03*
X66000D03*
X65500D03*
X65000D03*
X64500D03*
Y22000D03*
X65000D03*
X65500D03*
X66000D03*
X66500D03*
X67000D03*
X67500D03*
X68000D03*
X42750Y24250D03*
X42250D03*
X41750D03*
X41250D03*
X40750D03*
X40250D03*
X39750D03*
X23000D03*
X22500D03*
X39250D03*
Y22000D03*
X39750D03*
X40250D03*
X40750D03*
X22000Y24250D03*
X21500D03*
X21000D03*
X20500D03*
X20000D03*
X19500D03*
Y22000D03*
X20000D03*
X20500D03*
X21000D03*
X21500D03*
X22000D03*
X22500D03*
X23000D03*
X94000Y24250D03*
X74500D03*
X74000D03*
X73500D03*
X73000D03*
X72500D03*
X72000D03*
X71500D03*
X71000D03*
Y22000D03*
X71500D03*
X72000D03*
X72500D03*
X73000D03*
X73500D03*
X74000D03*
X74500D03*
X93500Y24250D03*
X93000D03*
X92500D03*
X92000D03*
X91500D03*
X91000D03*
X90500D03*
Y22000D03*
X91000D03*
X91500D03*
X92000D03*
X92500D03*
X93000D03*
X93500D03*
X94000D03*
X41250D03*
X41750D03*
X42250D03*
X42750D03*
X49250Y24250D03*
X48750D03*
X48250D03*
X47750D03*
X47250D03*
X46750D03*
X46250D03*
X45750D03*
Y22000D03*
X46250D03*
X46750D03*
X47250D03*
X47750D03*
X48250D03*
X48750D03*
X49250D03*
X100500Y24250D03*
X100000D03*
X99500D03*
X99000D03*
X98500D03*
X98000D03*
X97500D03*
X97000D03*
Y22000D03*
X97500D03*
X98000D03*
X98500D03*
X99000D03*
X99500D03*
X100000D03*
X100500D03*
M02*
