%FSLAX24Y24*%
%MOIN*%
%LNTopCopper*%
%ADD10C,.01*%
%ADD11C,.015*%
%ADD12C,.02*%
%ADD13C,.037*%
%ADD14C,.051*%
%ADD15C,.056*%
%ADD16C,.065*%
%ADD17C,.075*%
%ADD18C,.16*%
%ADD19R,.006X.006*%
%ADD20R,.056X.056*%
D10*
G01X89500Y16250D02*
Y23000D01*
X100500Y39750D02*
X96250Y35500D01*
X89500Y23000D02*
X96250Y29750D01*
Y35500D01*
X69250Y16250D02*
X76000Y23000D01*
X95250Y36500D02*
X99750Y41000D01*
X88750Y23000D02*
X95750Y30000D01*
Y36000D01*
X95250Y36500D02*
Y30250D01*
X95750Y36000D02*
X100500Y40750D01*
X95250Y30250D02*
X88500Y23500D01*
X94750Y37000D02*
X99250Y41500D01*
X94750Y37000D02*
Y30500D01*
X88250Y24000D01*
X100000Y44000D02*
X102000D01*
X51000Y23500D02*
X43750Y16250D01*
X102000Y44000D02*
X102750Y43250D01*
X21500Y20000D02*
X17750Y16250D01*
X100250Y43500D02*
X101750D01*
X102750Y43250D02*
Y41000D01*
X100250Y43500D02*
X99750Y43000D01*
X102750Y41000D02*
X101500Y39750D01*
X101750Y43500D02*
X102250Y43000D01*
Y41500D01*
X101500Y40750D01*
X100000Y44000D02*
X99250Y43250D01*
X99750Y43000D02*
Y41000D01*
X99250Y43250D02*
Y41500D01*
X66000Y30000D02*
X73000D01*
X66000Y29000D02*
X73000D01*
X76000Y30000D02*
X78000D01*
X80500Y42750D02*
Y30000D01*
X73000Y35000D02*
X66000D01*
Y34000D02*
X73000D01*
X66000Y33000D02*
X73000D01*
X66000Y32000D02*
X73000D01*
X66000Y31000D02*
X73000D01*
X66000Y36000D02*
X74000D01*
X76000Y34000D02*
X74000Y36000D01*
X62500Y32000D02*
X53500D01*
X62500Y31000D02*
X56250D01*
X53500Y32000D02*
X52750Y31250D01*
Y29750D01*
X62500Y29000D02*
X57500D01*
X56250Y31000D02*
X55750Y30500D01*
Y29750D01*
X57500Y29000D02*
X56750Y29750D01*
X62500Y34000D02*
X53500D01*
X62500Y35000D02*
X56500D01*
X53500Y34000D02*
X52750Y34750D01*
Y35750D01*
X62500Y36000D02*
X62000Y36500D01*
X56500Y35000D02*
X55750Y35750D01*
X62000Y36500D02*
X54500D01*
X53750Y35750D01*
D11*
X14250Y16250D02*
Y20000D01*
X8000Y22000D02*
Y31000D01*
X101750Y17750D02*
Y31500D01*
X102250Y18250D02*
Y32000D01*
X101500Y32750D01*
X102750Y18750D02*
Y32500D01*
X101500Y33750D01*
X103250Y19250D02*
Y33000D01*
X92750Y16250D02*
Y19250D01*
X103250Y33000D02*
X101500Y34750D01*
X66750Y16250D02*
X73000Y22500D01*
X96750Y35000D02*
Y23250D01*
Y35000D02*
X100500Y38750D01*
X41250Y16250D02*
X47000Y22000D01*
X15250Y16250D02*
X18000Y19000D01*
X97250Y22500D02*
Y34500D01*
X97750Y22000D02*
Y34000D01*
X96750Y23250D02*
X92750Y19250D01*
X97250Y34500D02*
X100500Y37750D01*
X98250Y21500D02*
Y33500D01*
X97750Y34000D02*
X100500Y36750D01*
X98250Y33500D02*
X100500Y35750D01*
X103750Y14250D02*
Y33500D01*
X101500Y35750D01*
Y37750D02*
X104750Y34500D01*
X41250Y1250D02*
Y7500D01*
X104250Y15000D02*
Y34000D01*
X104750Y34500D02*
Y15750D01*
X104250Y34000D02*
X101500Y36750D01*
X105250Y16500D02*
Y35000D01*
X92750Y1250D02*
Y9500D01*
X105250Y35000D02*
X101500Y38750D01*
X66750Y1250D02*
X74750Y9250D01*
X92750Y9500D02*
X98750Y15500D01*
Y33000D01*
X100500Y34750D01*
X101500Y31750D02*
X101750Y31500D01*
X100500Y31750D02*
X100250Y31500D01*
X99250Y13000D02*
Y32500D01*
X100250Y20250D02*
Y31500D01*
X99250Y32500D02*
X100500Y33750D01*
Y32750D02*
X99750Y32000D01*
Y21000D01*
X41250Y7500D02*
X54750Y21000D01*
X22000Y18500D02*
Y14250D01*
X15250Y7500D01*
Y1250D01*
X8000Y31750D02*
Y31000D01*
Y32750D02*
X7500Y32250D01*
Y21500D01*
X8000Y33750D02*
X7000Y32750D01*
Y21000D01*
X8000Y34750D02*
X6500Y33250D01*
Y20500D01*
X40250Y16250D02*
Y19500D01*
X65750Y19750D02*
Y16250D01*
X91750D02*
Y19750D01*
D12*
X13250Y16250D02*
Y22000D01*
Y1250D02*
X12500Y2000D01*
X10750Y23250D02*
Y33000D01*
X12500Y2000D02*
Y17250D01*
X12750Y35000D02*
Y17500D01*
X14250Y1250D02*
Y11500D01*
X12750Y35000D02*
X9000Y38750D01*
X6000Y33750D02*
X8000Y35750D01*
X40250Y1250D02*
Y10250D01*
X6000Y33750D02*
Y19750D01*
X91750Y1250D02*
Y9750D01*
X65750Y1250D02*
Y9750D01*
X5500Y19000D02*
Y34250D01*
X5000Y18250D02*
Y34750D01*
X5500Y34250D02*
X8000Y36750D01*
Y38750D02*
X4500Y35250D01*
X5000Y34750D02*
X8000Y37750D01*
X39250Y16250D02*
Y21500D01*
X4500Y35250D02*
Y17500D01*
X64750Y16250D02*
Y25000D01*
X90750Y16250D02*
X89750Y15250D01*
X87750D01*
X86750Y16250D01*
Y24500D01*
X9000Y34750D02*
X10750Y33000D01*
X9750Y22250D02*
Y32000D01*
X9000Y33750D02*
X10250Y32500D01*
X9750Y32000D02*
X9000Y32750D01*
X9250Y21750D02*
Y31250D01*
X10250Y32500D02*
Y22750D01*
X9250Y31250D02*
X9000Y31750D01*
X12750Y17500D02*
X12500Y17250D01*
X9000Y35750D02*
X11250Y33500D01*
Y23750D01*
X9000Y36750D02*
X11750Y34000D01*
Y24250D01*
X9000Y37750D02*
X12250Y34500D01*
Y27500D01*
X86000Y25000D02*
Y11250D01*
X64750Y1250D02*
Y6500D01*
X86000Y11250D02*
X90750Y6500D01*
Y1250D01*
X39250D02*
Y6500D01*
X64750D02*
X60000Y11250D01*
Y26000D01*
X39250Y6500D02*
X34500Y11250D01*
X18750Y27000D01*
X79750Y41750D02*
Y35750D01*
X79000Y35000D02*
X78000D01*
X76000D01*
X79000D02*
X79750Y35750D01*
X76000Y29000D02*
X79000D01*
X79750Y29750D01*
Y35750D01*
D13*
X99750Y21000D03*
X101750Y17750D03*
X102250Y18250D03*
X102750Y18750D03*
X103250Y19250D03*
X18000Y19000D03*
X97250Y22500D03*
X73000D03*
X47000Y22000D03*
X97750D03*
X98250Y21500D03*
X100250Y20250D03*
X54750Y21000D03*
X22000Y18500D03*
X105250Y16500D03*
X104250Y15000D03*
X104750Y15750D03*
X103750Y14250D03*
X99250Y13000D03*
X74750Y9250D03*
X80500Y30000D03*
X89500Y16250D03*
X76000Y23000D03*
X88750D03*
X88500Y23500D03*
X88250Y24000D03*
X21500Y20000D03*
X51000Y23500D03*
X14250Y20000D03*
X8000Y22000D03*
X7000Y21000D03*
X7500Y21500D03*
X6500Y20500D03*
X40250Y19500D03*
X65750Y19750D03*
X91750D03*
X78000Y30000D03*
X80500Y42750D03*
D14*
X52750Y35750D03*
X53750D03*
X54750D03*
X55750D03*
X56750D03*
X52750Y29750D03*
X53750D03*
X54750D03*
X55750D03*
X56750D03*
D15*
X10750Y23250D03*
X13250Y22000D03*
X65750Y9750D03*
X40250Y10250D03*
X14250Y11500D03*
X91750Y9750D03*
X6000Y19750D03*
X5500Y19000D03*
X5000Y18250D03*
X4500Y17500D03*
X86750Y24500D03*
X9250Y21750D03*
X39250Y21500D03*
X64750Y25000D03*
X9750Y22250D03*
X10250Y22750D03*
X11750Y24250D03*
X12250Y27500D03*
X86000Y25000D03*
X11250Y23750D03*
X18750Y27000D03*
X60000Y26000D03*
X62500Y36000D03*
X66000D03*
X62500Y35000D03*
X66000D03*
X62500Y34000D03*
X66000D03*
X62500Y33000D03*
X66000D03*
X62500Y32000D03*
X66000D03*
X62500Y31000D03*
X66000D03*
X62500Y30000D03*
X66000D03*
X62500Y29000D03*
X66000D03*
X78000Y35000D03*
Y36000D03*
X79750Y41750D03*
X73000Y34000D03*
Y33000D03*
Y32000D03*
Y31000D03*
Y30000D03*
Y29000D03*
Y28000D03*
X76000D03*
Y29000D03*
Y30000D03*
Y31000D03*
Y32000D03*
Y33000D03*
Y34000D03*
Y35000D03*
D16*
X100500Y42750D03*
Y41750D03*
Y40750D03*
Y39750D03*
Y38750D03*
Y37750D03*
Y36750D03*
Y35750D03*
Y34750D03*
Y33750D03*
Y32750D03*
Y31750D03*
X101500Y41750D03*
Y40750D03*
Y39750D03*
Y38750D03*
Y37750D03*
Y36750D03*
Y35750D03*
Y34750D03*
Y33750D03*
Y32750D03*
Y31750D03*
Y42750D03*
X8000D03*
X9000D03*
Y41750D03*
X8000D03*
Y40750D03*
X9000D03*
Y39750D03*
X8000D03*
Y38750D03*
X9000D03*
Y37750D03*
X8000D03*
Y36750D03*
X9000D03*
Y35750D03*
X8000D03*
Y34750D03*
X9000D03*
Y33750D03*
X8000D03*
Y32750D03*
X9000D03*
X8000Y31750D03*
X9000D03*
D17*
X13250Y16250D03*
X14250D03*
X15250D03*
X16250D03*
X17750D03*
Y15250D03*
X13250Y1250D03*
X14250D03*
X15250D03*
X16250D03*
X39250Y16250D03*
X40250D03*
X41250D03*
X42250D03*
X43750D03*
Y15250D03*
X39250Y1250D03*
X40250D03*
X41250D03*
X42250D03*
X64750Y16250D03*
X65750D03*
X66750D03*
X67750D03*
X69250D03*
Y15250D03*
X64750Y1250D03*
X65750D03*
X66750D03*
X67750D03*
X90750Y16250D03*
X91750D03*
X92750D03*
X93750D03*
X95250D03*
Y15250D03*
X90750Y1250D03*
X91750D03*
X92750D03*
X93750D03*
D18*
X4560Y12690D03*
Y4820D03*
X27390Y12690D03*
Y4820D03*
X30560Y12690D03*
Y4820D03*
X53390Y12690D03*
Y4820D03*
X56060Y12690D03*
Y4820D03*
X78890Y12690D03*
Y4820D03*
X82060Y12690D03*
Y4820D03*
X104890Y12690D03*
Y4820D03*
X2250Y2250D03*
X107250D03*
Y43000D03*
X2250D03*
D20*
X73000Y35000D03*
M02*
