%FSLAX24Y24*%
%MOIN*%
%LNBottomCopper*%
%ADD10C,.01*%
%ADD11C,.015*%
%ADD12C,.02*%
%ADD13C,.034*%
%ADD14C,.037*%
%ADD15C,.039*%
%ADD16C,.044*%
%ADD17C,.05*%
%ADD18C,.051*%
%ADD19C,.056*%
%ADD20C,.061*%
%ADD21C,.065*%
%ADD22C,.074*%
%ADD23C,.075*%
%ADD24C,.08*%
%ADD25C,.089*%
%ADD26C,.099*%
%ADD27C,.16*%
%ADD28C,.184*%
%ADD29R,.006X.006*%
%ADD30R,.056X.056*%
%ADD31R,.08X.08*%
G36*
G01X250Y45000D02*
X26750D01*
Y24000D01*
X35250D01*
Y45000D01*
X60250D01*
Y39000D01*
X67750D01*
Y45000D01*
X109250D01*
Y250D01*
X250D01*
Y45000D01*
G37*
%LPC*%
G36*
X11750Y24250D02*
X9250Y21750D01*
X8750Y21250D01*
X8000Y22000D01*
X6500Y20500D01*
X9500Y17500D01*
X13000D01*
Y16000D01*
X16250D01*
Y16250D01*
X17000Y17000D01*
X39000D01*
Y16000D01*
X42500D01*
Y16500D01*
X43000Y17000D01*
X44250Y18250D01*
X64500D01*
Y16000D01*
X67500D01*
X69750Y18250D01*
X90500D01*
Y16000D01*
X93500D01*
X95250Y17750D01*
X101750D01*
X103250Y19250D01*
X92000D01*
Y20250D01*
X100500D01*
X100000Y21000D01*
X98500D01*
Y21500D01*
X97500Y22500D01*
X89250D01*
X88500Y24000D01*
X87500D01*
X86250Y25000D01*
X65750D01*
X65250Y25500D01*
X60000D01*
Y26500D01*
X56250D01*
X44000D01*
X40500Y23000D01*
X23750D01*
X23500Y23250D01*
Y22500D01*
X15000D01*
X14500Y23000D01*
X13000D01*
X11750Y24250D01*
G37*
G36*
X6000Y19750D02*
X4500Y17500D01*
X12750Y9250D01*
X17250D01*
Y8500D01*
X17500Y8750D01*
X42750D01*
Y8000D01*
X43000Y8250D01*
X74000D01*
Y7500D01*
X74250Y7750D01*
X96250D01*
Y7000D01*
X103500Y14250D01*
X103750D01*
X105250Y16500D01*
X103500D01*
X100000Y13000D01*
X99250D01*
X95500Y9250D01*
X91750D01*
Y9750D01*
X74000D01*
X73500Y9250D01*
X65750D01*
Y9750D01*
X40250D01*
Y10250D01*
X14250D01*
Y11500D01*
X6000Y19750D01*
G37*
G36*
X39250Y1500D02*
X42250D01*
Y1000D01*
X39250D01*
Y1500D01*
G37*
G36*
X64750Y1500D02*
X67750D01*
Y1000D01*
X64750D01*
Y1500D01*
G37*
G36*
X13250Y1500D02*
X16250D01*
Y1000D01*
X13250D01*
Y1500D01*
G37*
D13*
X95250Y16250D02*
X94250Y15250D01*
X90500D01*
X89500Y16250D01*
X76000Y23000D02*
X88750D01*
X88500Y23500D02*
X51000D01*
X88250Y24000D02*
X45250D01*
X100500Y42750D02*
X80500D01*
X9000D02*
X23750Y28000D01*
X23250Y23500D02*
Y27500D01*
X40250Y23500D02*
X24000D01*
X78000Y30000D02*
X80500D01*
X9000Y41750D02*
X23250Y27500D01*
Y23500D02*
X23750Y23000D01*
Y28000D02*
Y23750D01*
X44000Y26500D02*
X74500D01*
X23750Y23000D02*
X40500D01*
X23750Y23750D02*
X24000Y23500D01*
X76000Y31000D02*
X75250Y30250D01*
X76000Y33000D02*
X74250Y31250D01*
X75250Y30250D02*
Y27250D01*
X74500Y26500D01*
X74250Y31250D02*
Y27750D01*
X73750Y27000D01*
X43750D01*
X62500Y30000D02*
X58250D01*
X62500Y33000D02*
X57750D01*
X58250Y30000D02*
X57250Y29000D01*
X54500D01*
X53750Y29750D01*
X57750Y33000D02*
X56750Y34000D01*
Y35750D01*
X21500Y20000D02*
X41250D01*
X45250Y24000D02*
X41250Y20000D01*
X40500Y23000D02*
X44000Y26500D01*
X40250Y23500D02*
X43750Y27000D01*
D15*
X93750Y16250D02*
X95250Y17750D01*
X67750Y16250D02*
X69750Y18250D01*
X95250Y17750D02*
X101750D01*
X42250Y16250D02*
X44250Y18250D01*
X69750D02*
X102250D01*
X44250D02*
X68750D01*
X16250Y16250D02*
X17000Y17000D01*
X42000D01*
X73000Y22500D02*
X97250D01*
X47000Y22000D02*
X97750D01*
X18000Y19000D02*
X41000D01*
X103500Y14250D02*
X93750Y4500D01*
Y1250D02*
Y4500D01*
X99750Y21000D02*
X54750D01*
X103500Y14250D02*
X103750D01*
X67750Y1250D02*
X74250Y7750D01*
X96250D01*
X103500Y15000D01*
X104250D01*
X16250Y1250D02*
Y7500D01*
X104750Y15750D02*
X103500D01*
X96000Y8250D01*
X16250Y7500D02*
X17500Y8750D01*
X96000Y8250D02*
X43000D01*
X42250Y7500D02*
Y1250D01*
X95750Y8750D02*
X103500Y16500D01*
X105250D01*
X100250Y20250D02*
X42960Y20230D01*
X74750Y9250D02*
X95500D01*
X65750Y19750D02*
X43250D01*
X95500Y9250D02*
X99250Y13000D01*
X95750Y8750D02*
X17500D01*
X42250Y7500D02*
X43000Y8250D01*
X8000Y22000D02*
X10000Y20000D01*
X7500Y21500D02*
X9500Y19500D01*
X98250Y21500D02*
X53730Y21490D01*
X53250Y20750D01*
X7000Y21000D02*
X10000Y18000D01*
X102750Y18750D02*
X69250D01*
X68750Y18250D01*
X103250Y19250D02*
X68750D01*
X68250Y18750D01*
X6500Y20500D02*
X9500Y17500D01*
X67750Y19250D02*
X68250Y19750D01*
X91750D01*
X67750Y19250D02*
X43500D01*
X68250Y18750D02*
X43750D01*
X42000Y17000D01*
X9500Y17500D02*
X41750D01*
X43500Y19250D02*
X41750Y17500D01*
X10000Y18000D02*
X41500D01*
X43250Y19750D02*
X41500Y18000D01*
X22000Y18500D02*
X41250D01*
X42960Y20230D02*
X41250Y18500D01*
X53250Y20750D02*
X42750D01*
X41000Y19000D01*
X40250Y19500D02*
X9500D01*
X14250Y20000D02*
X10000D01*
D16*
X13250Y22000D02*
X12000D01*
X14250Y11500D02*
X6000Y19750D01*
X40250Y10250D02*
X14250D01*
X91750Y9750D02*
X74000D01*
X65750D02*
X13500D01*
X74000D02*
X73500Y9250D01*
X12750D01*
X14250Y10250D02*
X5500Y19000D01*
X13500Y9750D02*
X5000Y18250D01*
X12750Y9250D02*
X4500Y17500D01*
X86750Y24500D02*
X45000D01*
X64750Y25000D02*
X44750D01*
X11250Y23750D02*
X12500Y22500D01*
X14250D01*
X14750Y22000D01*
X41000D02*
X44500Y25500D01*
X65250D02*
X65750Y25000D01*
X86000D01*
X41000Y22000D02*
X14750D01*
X60000Y26000D02*
X44250D01*
X12250Y27500D02*
X12750D01*
X40750Y22500D02*
X15000D01*
X14500Y23000D02*
X13000D01*
X12750Y27500D02*
X13250Y27000D01*
X13000Y23000D02*
X11750Y24250D01*
X10250Y22750D02*
X11500Y21500D01*
X13250Y27000D02*
X18750D01*
X11500Y21500D02*
X39250D01*
X9750Y22250D02*
X11000Y21000D01*
X10750Y23250D02*
X12000Y22000D01*
X14500Y23000D02*
X15000Y22500D01*
X9250Y21750D02*
X10500Y20500D01*
X41000D01*
X45000Y24500D01*
X11000Y21000D02*
X40750D01*
X65250Y25500D02*
X44500D01*
X40750Y22500D02*
X44250Y26000D01*
X44750Y25000D02*
X40750Y21000D01*
D20*
X99750Y21000D03*
X101750Y17750D03*
X102250Y18250D03*
X102750Y18750D03*
X103250Y19250D03*
X18000Y19000D03*
X97250Y22500D03*
X73000D03*
X47000Y22000D03*
X97750D03*
X98250Y21500D03*
X100250Y20250D03*
X54750Y21000D03*
X22000Y18500D03*
X105250Y16500D03*
X104250Y15000D03*
X104750Y15750D03*
X103750Y14250D03*
X99250Y13000D03*
X74750Y9250D03*
X80500Y30000D03*
X89500Y16250D03*
X76000Y23000D03*
X88750D03*
X88500Y23500D03*
X88250Y24000D03*
X21500Y20000D03*
X51000Y23500D03*
X14250Y20000D03*
X8000Y22000D03*
X7000Y21000D03*
X7500Y21500D03*
X6500Y20500D03*
X40250Y19500D03*
X65750Y19750D03*
X91750D03*
X78000Y30000D03*
X80500Y42750D03*
D22*
X101500Y41750D02*
X100500D01*
X75250D01*
X71250Y37750D01*
X54750Y29750D02*
Y35750D01*
Y36750D01*
X55750Y37750D01*
X71250D01*
D23*
X52750Y35750D03*
X53750D03*
X54750D03*
X55750D03*
X56750D03*
X52750Y29750D03*
X53750D03*
X54750D03*
X55750D03*
X56750D03*
D24*
X10750Y23250D03*
X13250Y22000D03*
X65750Y9750D03*
X40250Y10250D03*
X14250Y11500D03*
X91750Y9750D03*
X6000Y19750D03*
X5500Y19000D03*
X5000Y18250D03*
X4500Y17500D03*
X86750Y24500D03*
X9250Y21750D03*
X39250Y21500D03*
X64750Y25000D03*
X9750Y22250D03*
X10250Y22750D03*
X11750Y24250D03*
X12250Y27500D03*
X86000Y25000D03*
X11250Y23750D03*
X18750Y27000D03*
X60000Y26000D03*
X62500Y36000D03*
X66000D03*
X62500Y35000D03*
X66000D03*
X62500Y34000D03*
X66000D03*
X62500Y33000D03*
X66000D03*
X62500Y32000D03*
X66000D03*
X62500Y31000D03*
X66000D03*
X62500Y30000D03*
X66000D03*
X62500Y29000D03*
X66000D03*
X78000Y35000D03*
X79750Y41750D03*
X73000Y34000D03*
Y33000D03*
Y32000D03*
Y31000D03*
Y30000D03*
Y29000D03*
X76000Y28000D03*
Y29000D03*
Y30000D03*
Y31000D03*
Y33000D03*
Y34000D03*
Y35000D03*
D25*
X100500Y42750D03*
Y41750D03*
Y40750D03*
Y39750D03*
Y38750D03*
Y37750D03*
Y36750D03*
Y35750D03*
Y34750D03*
Y33750D03*
Y32750D03*
Y31750D03*
X101500Y41750D03*
Y40750D03*
Y39750D03*
Y38750D03*
Y37750D03*
Y36750D03*
Y35750D03*
Y34750D03*
Y33750D03*
Y32750D03*
Y31750D03*
Y42750D03*
X9000D03*
Y41750D03*
X8000Y40750D03*
X9000D03*
Y39750D03*
X8000D03*
Y38750D03*
X9000D03*
Y37750D03*
X8000D03*
Y36750D03*
X9000D03*
Y35750D03*
X8000D03*
Y34750D03*
X9000D03*
Y33750D03*
X8000D03*
Y32750D03*
X9000D03*
X8000Y31750D03*
X9000D03*
D26*
X13250Y16250D03*
X14250D03*
X15250D03*
X16250D03*
X17750D03*
X13250Y1250D03*
X14250D03*
X15250D03*
X16250D03*
X39250Y16250D03*
X40250D03*
X41250D03*
X42250D03*
X43750D03*
X39250Y1250D03*
X40250D03*
X41250D03*
X42250D03*
X64750Y16250D03*
X65750D03*
X66750D03*
X67750D03*
X69250D03*
X64750Y1250D03*
X65750D03*
X66750D03*
X67750D03*
X90750Y16250D03*
X91750D03*
X92750D03*
X93750D03*
X95250D03*
X90750Y1250D03*
X91750D03*
X92750D03*
X93750D03*
D28*
X4560Y12690D03*
Y4820D03*
X27390Y12690D03*
Y4820D03*
X30560Y12690D03*
Y4820D03*
X53390Y12690D03*
Y4820D03*
X56060Y12690D03*
Y4820D03*
X78890Y12690D03*
Y4820D03*
X82060Y12690D03*
Y4820D03*
X104890Y12690D03*
Y4820D03*
X2250Y2250D03*
X107250D03*
Y43000D03*
X2250D03*
D31*
X73000Y35000D03*
%LPD*%
D10*
X95250Y16250D02*
X94250Y15250D01*
X90500D01*
X89500Y16250D01*
X76000Y23000D02*
X88750D01*
X88500Y23500D02*
X51000D01*
X88250Y24000D02*
X45250D01*
X100500Y42750D02*
X80500D01*
X9000D02*
X23750Y28000D01*
X23250Y23500D02*
Y27500D01*
X40250Y23500D02*
X24000D01*
X78000Y30000D02*
X80500D01*
X9000Y41750D02*
X23250Y27500D01*
Y23500D02*
X23750Y23000D01*
Y28000D02*
Y23750D01*
X44000Y26500D02*
X74500D01*
X23750Y23000D02*
X40500D01*
X23750Y23750D02*
X24000Y23500D01*
X76000Y31000D02*
X75250Y30250D01*
X76000Y33000D02*
X74250Y31250D01*
X75250Y30250D02*
Y27250D01*
X74500Y26500D01*
X74250Y31250D02*
Y27750D01*
X73750Y27000D01*
X43750D01*
X62500Y30000D02*
X58250D01*
X62500Y33000D02*
X57750D01*
X58250Y30000D02*
X57250Y29000D01*
X54500D01*
X53750Y29750D01*
X57750Y33000D02*
X56750Y34000D01*
Y35750D01*
X21500Y20000D02*
X41250D01*
X45250Y24000D02*
X41250Y20000D01*
X40500Y23000D02*
X44000Y26500D01*
X40250Y23500D02*
X43750Y27000D01*
D11*
X93750Y16250D02*
X95250Y17750D01*
X67750Y16250D02*
X69750Y18250D01*
X95250Y17750D02*
X101750D01*
X42250Y16250D02*
X44250Y18250D01*
X69750D02*
X102250D01*
X44250D02*
X68750D01*
X16250Y16250D02*
X17000Y17000D01*
X42000D01*
X73000Y22500D02*
X97250D01*
X47000Y22000D02*
X97750D01*
X18000Y19000D02*
X41000D01*
X103500Y14250D02*
X93750Y4500D01*
Y1250D02*
Y4500D01*
X99750Y21000D02*
X54750D01*
X103500Y14250D02*
X103750D01*
X67750Y1250D02*
X74250Y7750D01*
X96250D01*
X103500Y15000D01*
X104250D01*
X16250Y1250D02*
Y7500D01*
X104750Y15750D02*
X103500D01*
X96000Y8250D01*
X16250Y7500D02*
X17500Y8750D01*
X96000Y8250D02*
X43000D01*
X42250Y7500D02*
Y1250D01*
X95750Y8750D02*
X103500Y16500D01*
X105250D01*
X100250Y20250D02*
X42960Y20230D01*
X74750Y9250D02*
X95500D01*
X65750Y19750D02*
X43250D01*
X95500Y9250D02*
X99250Y13000D01*
X95750Y8750D02*
X17500D01*
X42250Y7500D02*
X43000Y8250D01*
X8000Y22000D02*
X10000Y20000D01*
X7500Y21500D02*
X9500Y19500D01*
X98250Y21500D02*
X53730Y21490D01*
X53250Y20750D01*
X7000Y21000D02*
X10000Y18000D01*
X102750Y18750D02*
X69250D01*
X68750Y18250D01*
X103250Y19250D02*
X68750D01*
X68250Y18750D01*
X6500Y20500D02*
X9500Y17500D01*
X67750Y19250D02*
X68250Y19750D01*
X91750D01*
X67750Y19250D02*
X43500D01*
X68250Y18750D02*
X43750D01*
X42000Y17000D01*
X9500Y17500D02*
X41750D01*
X43500Y19250D02*
X41750Y17500D01*
X10000Y18000D02*
X41500D01*
X43250Y19750D02*
X41500Y18000D01*
X22000Y18500D02*
X41250D01*
X42960Y20230D02*
X41250Y18500D01*
X53250Y20750D02*
X42750D01*
X41000Y19000D01*
X40250Y19500D02*
X9500D01*
X14250Y20000D02*
X10000D01*
D12*
X13250Y22000D02*
X12000D01*
X14250Y11500D02*
X6000Y19750D01*
X40250Y10250D02*
X14250D01*
X91750Y9750D02*
X74000D01*
X65750D02*
X13500D01*
X74000D02*
X73500Y9250D01*
X12750D01*
X14250Y10250D02*
X5500Y19000D01*
X13500Y9750D02*
X5000Y18250D01*
X12750Y9250D02*
X4500Y17500D01*
X86750Y24500D02*
X45000D01*
X64750Y25000D02*
X44750D01*
X11250Y23750D02*
X12500Y22500D01*
X14250D01*
X14750Y22000D01*
X41000D02*
X44500Y25500D01*
X65250D02*
X65750Y25000D01*
X86000D01*
X41000Y22000D02*
X14750D01*
X60000Y26000D02*
X44250D01*
X12250Y27500D02*
X12750D01*
X40750Y22500D02*
X15000D01*
X14500Y23000D02*
X13000D01*
X12750Y27500D02*
X13250Y27000D01*
X13000Y23000D02*
X11750Y24250D01*
X10250Y22750D02*
X11500Y21500D01*
X13250Y27000D02*
X18750D01*
X11500Y21500D02*
X39250D01*
X9750Y22250D02*
X11000Y21000D01*
X10750Y23250D02*
X12000Y22000D01*
X14500Y23000D02*
X15000Y22500D01*
X9250Y21750D02*
X10500Y20500D01*
X41000D01*
X45000Y24500D01*
X11000Y21000D02*
X40750D01*
X65250Y25500D02*
X44500D01*
X40750Y22500D02*
X44250Y26000D01*
X44750Y25000D02*
X40750Y21000D01*
D14*
X99750Y21000D03*
X101750Y17750D03*
X102250Y18250D03*
X102750Y18750D03*
X103250Y19250D03*
X18000Y19000D03*
X97250Y22500D03*
X73000D03*
X47000Y22000D03*
X97750D03*
X98250Y21500D03*
X100250Y20250D03*
X54750Y21000D03*
X22000Y18500D03*
X105250Y16500D03*
X104250Y15000D03*
X104750Y15750D03*
X103750Y14250D03*
X99250Y13000D03*
X74750Y9250D03*
X80500Y30000D03*
X89500Y16250D03*
X76000Y23000D03*
X88750D03*
X88500Y23500D03*
X88250Y24000D03*
X21500Y20000D03*
X51000Y23500D03*
X14250Y20000D03*
X8000Y22000D03*
X7000Y21000D03*
X7500Y21500D03*
X6500Y20500D03*
X40250Y19500D03*
X65750Y19750D03*
X91750D03*
X78000Y30000D03*
X80500Y42750D03*
D17*
X101500Y41750D02*
X100500D01*
X75250D01*
X71250Y37750D01*
X54750Y29750D02*
Y35750D01*
Y36750D01*
X55750Y37750D01*
X71250D01*
D18*
X52750Y35750D03*
X53750D03*
X54750D03*
X55750D03*
X56750D03*
X52750Y29750D03*
X53750D03*
X54750D03*
X55750D03*
X56750D03*
D19*
X10750Y23250D03*
X13250Y22000D03*
X65750Y9750D03*
X40250Y10250D03*
X14250Y11500D03*
X91750Y9750D03*
X6000Y19750D03*
X5500Y19000D03*
X5000Y18250D03*
X4500Y17500D03*
X86750Y24500D03*
X9250Y21750D03*
X39250Y21500D03*
X64750Y25000D03*
X9750Y22250D03*
X10250Y22750D03*
X11750Y24250D03*
X12250Y27500D03*
X86000Y25000D03*
X11250Y23750D03*
X18750Y27000D03*
X60000Y26000D03*
X62500Y36000D03*
X66000D03*
X62500Y35000D03*
X66000D03*
X62500Y34000D03*
X66000D03*
X62500Y33000D03*
X66000D03*
X62500Y32000D03*
X66000D03*
X62500Y31000D03*
X66000D03*
X62500Y30000D03*
X66000D03*
X62500Y29000D03*
X66000D03*
X78000Y35000D03*
Y36000D03*
X79750Y41750D03*
X73000Y34000D03*
Y33000D03*
Y32000D03*
Y31000D03*
Y30000D03*
Y29000D03*
Y28000D03*
X76000D03*
Y29000D03*
Y30000D03*
Y31000D03*
Y32000D03*
Y33000D03*
Y34000D03*
Y35000D03*
D21*
X100500Y42750D03*
Y41750D03*
Y40750D03*
Y39750D03*
Y38750D03*
Y37750D03*
Y36750D03*
Y35750D03*
Y34750D03*
Y33750D03*
Y32750D03*
Y31750D03*
X101500Y41750D03*
Y40750D03*
Y39750D03*
Y38750D03*
Y37750D03*
Y36750D03*
Y35750D03*
Y34750D03*
Y33750D03*
Y32750D03*
Y31750D03*
Y42750D03*
X8000D03*
X9000D03*
Y41750D03*
X8000D03*
Y40750D03*
X9000D03*
Y39750D03*
X8000D03*
Y38750D03*
X9000D03*
Y37750D03*
X8000D03*
Y36750D03*
X9000D03*
Y35750D03*
X8000D03*
Y34750D03*
X9000D03*
Y33750D03*
X8000D03*
Y32750D03*
X9000D03*
X8000Y31750D03*
X9000D03*
D23*
X13250Y16250D03*
X14250D03*
X15250D03*
X16250D03*
X17750D03*
Y15250D03*
X13250Y1250D03*
X14250D03*
X15250D03*
X16250D03*
X39250Y16250D03*
X40250D03*
X41250D03*
X42250D03*
X43750D03*
Y15250D03*
X39250Y1250D03*
X40250D03*
X41250D03*
X42250D03*
X64750Y16250D03*
X65750D03*
X66750D03*
X67750D03*
X69250D03*
Y15250D03*
X64750Y1250D03*
X65750D03*
X66750D03*
X67750D03*
X90750Y16250D03*
X91750D03*
X92750D03*
X93750D03*
X95250D03*
Y15250D03*
X90750Y1250D03*
X91750D03*
X92750D03*
X93750D03*
D27*
X4560Y12690D03*
Y4820D03*
X27390Y12690D03*
Y4820D03*
X30560Y12690D03*
Y4820D03*
X53390Y12690D03*
Y4820D03*
X56060Y12690D03*
Y4820D03*
X78890Y12690D03*
Y4820D03*
X82060Y12690D03*
Y4820D03*
X104890Y12690D03*
Y4820D03*
X2250Y2250D03*
X107250D03*
Y43000D03*
X2250D03*
D30*
X73000Y35000D03*
M02*
