G04 #@! TF.FileFunction,Copper,L1,Top,Signal*
%FSLAX46Y46*%
G04 Gerber Fmt 4.6, Leading zero omitted, Abs format (unit mm)*
G04 Created by KiCad (PCBNEW 4.0.2-1.fc23-product) date Sun 16 Oct 2016 03:52:47 PM PDT*
%MOMM*%
G01*
G04 APERTURE LIST*
%ADD10C,0.100000*%
%ADD11O,2.362200X3.810000*%
%ADD12O,10.160000X4.724400*%
%ADD13C,1.422400*%
%ADD14C,2.540000*%
%ADD15C,0.939800*%
%ADD16C,0.508000*%
%ADD17C,0.381000*%
G04 APERTURE END LIST*
D10*
D11*
X151041100Y-144145000D03*
X153581100Y-144145000D03*
X156121100Y-144145000D03*
X158661100Y-144145000D03*
X151041100Y-135255000D03*
X153581100Y-135255000D03*
X156121100Y-135255000D03*
X158661100Y-135255000D03*
D12*
X154851100Y-139700000D03*
D13*
X166014400Y-56642000D03*
X163474400Y-56642000D03*
X154533600Y-56642000D03*
X151993600Y-56642000D03*
X155435300Y-51587400D03*
X157467300Y-51587400D03*
X159499300Y-51587400D03*
X161531300Y-51587400D03*
X162547300Y-53365400D03*
X160515300Y-53365400D03*
X158483300Y-53365400D03*
X156451300Y-53365400D03*
D14*
X151003000Y-48691800D03*
X167005000Y-48691800D03*
D13*
X141732000Y-60960000D03*
X141732000Y-50800000D03*
D15*
X153581100Y-147231100D03*
X146558000Y-147320000D03*
X146558000Y-54737000D03*
X158750000Y-130810000D03*
X156121100Y-147231100D03*
X163195000Y-147320000D03*
X160655000Y-126365000D03*
D16*
X151041100Y-135255000D02*
X151041100Y-135890000D01*
X151041100Y-135890000D02*
X154851100Y-139700000D01*
X151041100Y-135255000D02*
X151041100Y-57594500D01*
X155270200Y-53365400D02*
X156451300Y-53365400D01*
X151041100Y-57594500D02*
X155270200Y-53365400D01*
X155435300Y-51587400D02*
X155435300Y-51549300D01*
X155435300Y-51549300D02*
X154686000Y-50800000D01*
X154686000Y-50800000D02*
X154305000Y-50800000D01*
X150495000Y-50800000D02*
X141732000Y-50800000D01*
X148590000Y-141693900D02*
X151041100Y-144145000D01*
X148590000Y-52705000D02*
X148590000Y-141693900D01*
X150495000Y-50800000D02*
X148590000Y-52705000D01*
X154305000Y-50800000D02*
X150495000Y-50800000D01*
D17*
X146558000Y-54737000D02*
X146558000Y-147320000D01*
X153581100Y-144145000D02*
X153581100Y-147231100D01*
X158661100Y-135255000D02*
X158661100Y-130898900D01*
X158661100Y-130898900D02*
X158750000Y-130810000D01*
X161531300Y-51587400D02*
X163042600Y-51587400D01*
X161290000Y-141605000D02*
X158661100Y-144145000D01*
X167640000Y-51435000D02*
X167640000Y-57785000D01*
X167640000Y-57785000D02*
X158750000Y-66675000D01*
X158750000Y-66675000D02*
X158750000Y-128270000D01*
X158750000Y-128270000D02*
X161290000Y-130810000D01*
X161290000Y-130810000D02*
X161290000Y-141605000D01*
X167005000Y-50800000D02*
X167640000Y-51435000D01*
X163830000Y-50800000D02*
X167005000Y-50800000D01*
X163042600Y-51587400D02*
X163830000Y-50800000D01*
X156121100Y-135890000D02*
X156121100Y-61683900D01*
X156121100Y-61683900D02*
X162560000Y-55245000D01*
X162560000Y-55245000D02*
X162547300Y-53365400D01*
X156121100Y-144145000D02*
X156121100Y-147231100D01*
X163195000Y-128905000D02*
X163195000Y-147320000D01*
X160655000Y-126365000D02*
X163195000Y-128905000D01*
D16*
X153581100Y-135255000D02*
X153581100Y-61048900D01*
X153581100Y-61048900D02*
X158483300Y-56146700D01*
X158483300Y-56146700D02*
X158483300Y-53365400D01*
M02*
