M48
;DRILL file {KiCad 4.0.2-1.fc23-product} date Wed 19 Oct 2016 10:17:25 AM PDT
;FORMAT={-:-/ absolute / inch / decimal}
FMAT,2
INCH,TZ
T1C0.020
T2C0.035
T3C0.079
T4C0.071
%
G90
G05
M72
T1
X5.85Y-2.075
X5.85Y-5.8
X6.09Y-5.8
X6.19Y-5.8
X6.2935Y-5.1765
X6.325Y-4.975
X6.425Y-5.8
T2
X5.58Y-2.
X5.58Y-2.4
X5.984Y-2.23
X6.084Y-2.23
X6.1195Y-2.031
X6.1595Y-2.101
X6.1995Y-2.031
X6.2395Y-2.101
X6.2795Y-2.031
X6.3195Y-2.101
X6.3595Y-2.031
X6.3995Y-2.101
X6.436Y-2.23
X6.536Y-2.23
T3
X5.945Y-1.917
X6.575Y-1.917
T4
X6.034Y-2.088
X6.486Y-2.088
T0
M30
